M48
; DRILL file {KiCad 9.0.4} date 2025-11-02T13:51:21+0100
; FORMAT={-:-/ absolute / inch / decimal}
; #@! TF.CreationDate,2025-11-02T13:51:21+01:00
; #@! TF.GenerationSoftware,Kicad,Pcbnew,9.0.4
; #@! TF.FileFunction,Plated,1,4,PTH
FMAT,2
INCH
; #@! TA.AperFunction,Plated,PTH,ViaDrill
T1C0.0118
; #@! TA.AperFunction,Plated,PTH,ComponentDrill
T2C0.0118
; #@! TA.AperFunction,Plated,PTH,ComponentDrill
T3C0.0236
; #@! TA.AperFunction,Plated,PTH,ComponentDrill
T4C0.0315
; #@! TA.AperFunction,Plated,PTH,ComponentDrill
T5C0.0394
; #@! TA.AperFunction,Plated,PTH,ComponentDrill
T6C0.0433
; #@! TA.AperFunction,Plated,PTH,ComponentDrill
T7C0.0472
; #@! TA.AperFunction,Plated,PTH,ComponentDrill
T8C0.1063
; #@! TA.AperFunction,Plated,PTH,ComponentDrill
T9C0.1260
%
G90
G05
T1
X1.4469Y-1.4764
X1.4567Y-1.7913
X1.4567Y-4.8819
X1.4567Y-5.128
X1.4764Y-4.4094
X1.5157Y-2.0768
X1.5157Y-4.124
X1.5453Y-1.5453
X1.5453Y-1.9783
X1.5846Y-2.0768
X1.5846Y-3.2776
X1.6142Y-3.9665
X1.6437Y-5.0984
X1.6732Y-4.3012
X1.6929Y-2.3819
X1.7126Y-2.7165
X1.7126Y-2.8346
X1.7126Y-3.9272
X1.7323Y-1.5551
X1.7618Y-1.6732
X1.7618Y-3.0807
X1.7717Y-2.5984
X1.7815Y-4.0157
X1.8012Y-3.8287
X1.8209Y-3.6122
X1.8406Y-1.9193
X1.8504Y-2.1063
X1.8504Y-2.2146
X1.8504Y-4.4882
X1.8602Y-1.9882
X1.8701Y-1.8307
X1.874Y-2.3228
X1.8799Y-1.5551
X1.8898Y-2.8642
X1.8898Y-3.9469
X1.8898Y-4.0846
X1.9193Y-3.7402
X1.9193Y-4.3701
X1.9291Y-4.1535
X1.9488Y-3.5433
X2.0276Y-3.563
X2.0276Y-3.8287
X2.0472Y-4.1535
X2.0571Y-3.6417
X2.0866Y-1.8602
X2.0866Y-2.0571
X2.0866Y-2.5295
X2.0866Y-2.8642
X2.0866Y-2.9626
X2.0965Y-1.5059
X2.0965Y-3.0709
X2.0965Y-4.3799
X2.1063Y-3.3465
X2.1063Y-3.7795
X2.1063Y-3.8976
X2.126Y-2.3917
X2.126Y-2.5787
X2.126Y-3.0118
X2.1752Y-2.9724
X2.1949Y-1.7126
X2.1949Y-3.435
X2.2146Y-4.1929
X2.2244Y-2.7165
X2.2244Y-3.8287
X2.2343Y-2.5591
X2.2343Y-3.0512
X2.2539Y-3.622
X2.2638Y-4.065
X2.2933Y-3.0906
X2.3031Y-2.3228
X2.3031Y-2.6083
X2.3425Y-2.3524
X2.3524Y-1.7126
X2.3524Y-1.9291
X2.3819Y-2.5886
X2.3917Y-4.3799
X2.4114Y-2.7559
X2.4213Y-4.0157
X2.4311Y-4.2421
X2.4409Y-2.0866
X2.4508Y-1.8898
X2.4606Y-3.622
X2.4705Y-2.1457
X2.4705Y-5.0
X2.4902Y-2.8937
X2.4902Y-3.0807
X2.5Y-1.8504
X2.5Y-2.5984
X2.5Y-4.1043
X2.5098Y-2.185
X2.5295Y-2.7559
X2.5394Y-3.4252
X2.5492Y-3.7697
X2.5591Y-2.0866
X2.5591Y-2.2343
X2.5591Y-4.3799
X2.5689Y-1.6043
X2.5689Y-1.7421
X2.5689Y-1.9488
X2.5886Y-2.5689
X2.5886Y-5.0
X2.6181Y-3.1004
X2.628Y-2.0669
X2.628Y-3.3465
X2.6378Y-1.4665
X2.6378Y-1.9882
X2.6378Y-2.3327
X2.6378Y-2.7559
X2.6378Y-2.8248
X2.6476Y-2.1457
X2.6575Y-3.7894
X2.6673Y-3.9665
X2.6673Y-4.3799
X2.7264Y-4.1437
X2.7461Y-5.1476
X2.7559Y-3.622
X2.7603Y-3.4886
X2.8051Y-3.4941
X2.8051Y-4.3406
X2.815Y-2.5591
X2.815Y-3.8091
X2.8248Y-2.2441
X2.8248Y-2.7657
X2.8248Y-2.9626
X2.8248Y-3.061
X2.8248Y-5.1378
X2.8346Y-1.6831
X2.8445Y-1.4961
X2.8445Y-1.8996
X2.874Y-1.4567
X2.8937Y-4.8228
X2.9134Y-1.5354
X2.9232Y-2.0079
X2.9232Y-2.8543
X2.9232Y-2.9724
X2.9331Y-2.1063
X2.9331Y-2.7067
X2.9331Y-3.5728
X2.9331Y-3.8484
X2.9429Y-1.6732
X2.9429Y-2.5984
X2.9429Y-3.061
X2.9429Y-4.3799
X2.9528Y-1.9094
X2.9528Y-5.0886
X2.9715Y-5.0196
X2.9724Y-2.3327
X2.9724Y-2.4213
X2.9724Y-2.5
X2.9724Y-2.9724
X2.9724Y-4.9213
X2.9724Y-4.9803
X2.9765Y-2.2285
X2.9792Y-1.8178
X2.9803Y-2.9331
X3.002Y-1.5256
X3.0118Y-2.7756
X3.0217Y-1.9094
X3.0217Y-3.248
X3.0217Y-4.1142
X3.0217Y-4.3898
X3.0315Y-1.8504
X3.0315Y-2.3031
X3.0315Y-2.6969
X3.0315Y-2.9528
X3.0512Y-2.3425
X3.0512Y-2.7362
X3.0512Y-2.9134
X3.0591Y-2.7953
X3.061Y-2.126
X3.0709Y-1.8898
X3.0906Y-2.3031
X3.0906Y-2.7559
X3.0906Y-2.7953
X3.0906Y-4.3898
X3.1004Y-1.5256
X3.1004Y-3.0217
X3.1102Y-1.6732
X3.1102Y-1.8898
X3.1102Y-4.6654
X3.1219Y-4.3868
X3.122Y-2.7953
X3.1299Y-3.7402
X3.1299Y-3.8091
X3.1299Y-3.9567
X3.1299Y-4.3012
X3.1398Y-1.8406
X3.1417Y-2.4606
X3.1457Y-2.9134
X3.1457Y-3.7008
X3.1496Y-2.3031
X3.1693Y-1.8898
X3.1742Y-2.7668
X3.1791Y-4.0157
X3.1791Y-4.3602
X3.189Y-1.7323
X3.189Y-2.3622
X3.189Y-2.4311
X3.1929Y-1.9488
X3.2283Y-2.2441
X3.2874Y-1.4764
X3.2874Y-1.8406
X3.2874Y-3.1201
X3.3071Y-3.8583
X3.3071Y-4.1732
X3.3268Y-2.0276
X3.3465Y-4.5472
X3.3465Y-4.813
X3.3661Y-2.3917
X3.3957Y-1.5945
X3.4252Y-3.2874
X3.4547Y-4.1634
X3.5433Y-3.7008
X3.5433Y-3.7402
X3.5433Y-4.7441
X3.5502Y-2.7687
X3.5531Y-4.6555
X3.563Y-5.1575
X3.5656Y-4.7664
X3.5728Y-1.8799
X3.5728Y-2.313
X3.5728Y-2.8937
X3.5728Y-3.3661
X3.5728Y-4.311
X3.5827Y-2.7953
X3.6122Y-1.6043
X3.6122Y-3.0315
X3.6122Y-4.9016
X3.622Y-1.7844
X3.622Y-2.252
X3.622Y-2.5492
X3.622Y-2.7244
X3.622Y-2.8376
X3.622Y-3.1976
X3.622Y-3.5039
X3.622Y-3.6701
X3.622Y-4.1425
X3.622Y-4.4488
X3.622Y-4.615
X3.622Y-5.0874
X3.6319Y-2.0768
X3.6319Y-3.9665
X3.6319Y-4.2028
X3.6417Y-2.9724
X3.6417Y-4.7736
X3.6461Y-2.8583
X3.6516Y-3.3071
X3.6614Y-1.7451
X3.6614Y-2.2126
X3.6614Y-2.685
X3.6614Y-3.1583
X3.6614Y-3.6307
X3.6614Y-4.1031
X3.6614Y-4.5756
X3.6614Y-5.048
X3.6811Y-1.7057
X3.6811Y-2.1732
X3.6811Y-2.6457
X3.6811Y-3.1189
X3.6811Y-3.5913
X3.6811Y-4.0638
X3.6811Y-4.5362
X3.6811Y-5.0087
X3.7303Y-1.8996
X3.7402Y-2.3524
X3.8583Y-4.311
X3.878Y-2.8937
X3.878Y-4.7638
X3.8878Y-4.9508
X3.8976Y-1.4764
X3.8976Y-1.6437
X3.8976Y-1.8504
X3.8976Y-1.9291
X3.8976Y-2.1063
X3.8976Y-2.4016
X3.8976Y-2.5787
X3.8976Y-3.0512
X3.8976Y-3.2579
X3.8976Y-3.3465
X3.8976Y-3.5236
X3.8976Y-3.7402
X3.8976Y-3.8189
X3.8976Y-3.9961
X3.8976Y-4.4783
X3.8976Y-4.685
X3.8976Y-5.1476
X3.9075Y-2.3228
X3.9075Y-2.7854
X3.9075Y-4.2028
X3.937Y-1.7057
X3.937Y-2.1732
X3.937Y-2.6457
X3.937Y-3.1189
X3.937Y-3.5913
X3.937Y-4.0638
X3.937Y-4.5362
X3.937Y-5.0087
X3.9961Y-1.7451
X3.9961Y-2.2126
X3.9961Y-2.685
X3.9961Y-3.1583
X3.9961Y-3.6307
X3.9961Y-4.1031
X3.9961Y-4.5756
X3.9961Y-5.048
X4.0453Y-4.2028
X4.0551Y-5.1378
X4.0945Y-2.7854
X4.0945Y-3.2579
X4.124Y-2.313
X4.1437Y-4.685
X4.1535Y-1.8504
X4.1535Y-3.2972
X4.1535Y-3.7402
X4.1535Y-4.2323
T2
X3.5451Y-1.6719
X3.5451Y-1.7396
X3.5451Y-2.1394
X3.5451Y-2.2071
X3.5451Y-2.6118
X3.5451Y-2.6795
X3.5451Y-3.085
X3.5451Y-3.1528
X3.5451Y-3.5575
X3.5451Y-3.6252
X3.5451Y-4.0299
X3.5451Y-4.0976
X3.5451Y-4.5024
X3.5451Y-4.5701
X3.5451Y-4.9748
X3.5451Y-5.0425
X3.564Y-1.7057
X3.564Y-2.1732
X3.564Y-2.6457
X3.564Y-3.1189
X3.564Y-3.5913
X3.564Y-4.0638
X3.564Y-4.5362
X3.564Y-5.0087
X3.5829Y-1.6719
X3.5829Y-1.7396
X3.5829Y-2.1394
X3.5829Y-2.2071
X3.5829Y-2.6118
X3.5829Y-2.6795
X3.5829Y-3.085
X3.5829Y-3.1528
X3.5829Y-3.5575
X3.5829Y-3.6252
X3.5829Y-4.0299
X3.5829Y-4.0976
X3.5829Y-4.5024
X3.5829Y-4.5701
X3.5829Y-4.9748
X3.5829Y-5.0425
T4
X2.6378Y-4.7638
X2.8346Y-4.7638
X3.8189Y-1.5482
X3.8189Y-1.7451
X3.8189Y-2.0157
X3.8189Y-2.2126
X3.8189Y-2.4882
X3.8189Y-2.685
X3.8189Y-2.9614
X3.8189Y-3.1583
X3.8189Y-3.4339
X3.8189Y-3.6307
X3.8189Y-3.9063
X3.8189Y-4.1031
X3.8189Y-4.3787
X3.8189Y-4.5756
X3.8189Y-4.8512
X3.8189Y-5.048
T5
X1.6142Y-3.578
X1.6142Y-3.678
X1.6142Y-3.778
X1.6142Y-3.878
X1.6339Y-1.4913
X1.6339Y-1.5913
X1.6339Y-1.6913
X1.6339Y-1.7913
X2.0152Y-1.5094
X2.0152Y-1.6094
X2.0152Y-1.7094
X2.0152Y-1.8094
X2.0152Y-1.9094
X2.0152Y-2.0094
X2.0152Y-2.1094
X2.0152Y-2.2094
X2.0152Y-2.3094
X2.0152Y-2.4094
X2.0152Y-2.5094
X2.0152Y-2.6094
X2.0152Y-2.7094
X2.0152Y-2.8094
X2.0152Y-2.9094
X2.0152Y-3.0094
X2.0152Y-3.1094
X2.0152Y-3.2094
X2.0152Y-3.3094
X2.0152Y-3.4094
X2.7152Y-1.5094
X2.7152Y-1.6094
X2.7152Y-1.7094
X2.7152Y-1.8094
X2.7152Y-1.9094
X2.7152Y-2.0094
X2.7152Y-2.1094
X2.7152Y-2.2094
X2.7152Y-2.3094
X2.7152Y-2.4094
X2.7152Y-2.5094
X2.7152Y-2.6094
X2.7152Y-2.7094
X2.7152Y-2.8094
X2.7152Y-2.9094
X2.7152Y-3.0094
X2.7152Y-3.1094
X2.7152Y-3.2094
X2.7152Y-3.3094
X2.7152Y-3.4094
X2.874Y-4.0059
X3.1299Y-5.0984
X3.3563Y-5.0984
X4.0945Y-1.5451
X4.0945Y-1.6451
X4.0945Y-1.7451
X4.0945Y-2.0126
X4.0945Y-2.1126
X4.0945Y-2.2126
X4.0945Y-2.485
X4.0945Y-2.585
X4.0945Y-2.685
X4.0945Y-2.9583
X4.0945Y-3.0583
X4.0945Y-3.1583
X4.0945Y-3.4307
X4.0945Y-3.5307
X4.0945Y-3.6307
X4.0945Y-3.9031
X4.0945Y-4.0031
X4.0945Y-4.1031
X4.0945Y-4.3756
X4.0945Y-4.4756
X4.0945Y-4.5756
X4.0945Y-4.848
X4.0945Y-4.948
X4.0945Y-5.048
T6
X1.4567Y-2.2441
X1.4567Y-2.5
X1.4567Y-2.6969
X1.4567Y-2.9528
X1.6339Y-2.2441
X1.6339Y-2.5
X1.6339Y-2.6969
X1.6339Y-2.9528
T7
X2.315Y-4.9016
X2.3622Y-4.5
T8
X2.0472Y-4.7165
X2.0472Y-5.0
T9
X1.5276Y-1.2756
X1.5276Y-5.3307
X4.0472Y-1.2756
X4.0472Y-5.3307
T3
G00X1.7894Y-4.5925
M15
G01X1.8327Y-4.5925
M16
G05
G00X1.7894Y-5.124
M15
G01X1.8327Y-5.124
M16
G05
M30
