%TF.GenerationSoftware,KiCad,Pcbnew,9.0.6*%
%TF.CreationDate,2025-11-30T21:04:56+01:00*%
%TF.ProjectId,controller,636f6e74-726f-46c6-9c65-722e6b696361,rev?*%
%TF.SameCoordinates,Original*%
%TF.FileFunction,Legend,Bot*%
%TF.FilePolarity,Positive*%
%FSLAX46Y46*%
G04 Gerber Fmt 4.6, Leading zero omitted, Abs format (unit mm)*
G04 Created by KiCad (PCBNEW 9.0.6) date 2025-11-30 21:04:56*
%MOMM*%
%LPD*%
G01*
G04 APERTURE LIST*
G04 Aperture macros list*
%AMRoundRect*
0 Rectangle with rounded corners*
0 $1 Rounding radius*
0 $2 $3 $4 $5 $6 $7 $8 $9 X,Y pos of 4 corners*
0 Add a 4 corners polygon primitive as box body*
4,1,4,$2,$3,$4,$5,$6,$7,$8,$9,$2,$3,0*
0 Add four circle primitives for the rounded corners*
1,1,$1+$1,$2,$3*
1,1,$1+$1,$4,$5*
1,1,$1+$1,$6,$7*
1,1,$1+$1,$8,$9*
0 Add four rect primitives between the rounded corners*
20,1,$1+$1,$2,$3,$4,$5,0*
20,1,$1+$1,$4,$5,$6,$7,0*
20,1,$1+$1,$6,$7,$8,$9,0*
20,1,$1+$1,$8,$9,$2,$3,0*%
%AMFreePoly0*
4,1,37,0.603843,0.796157,0.639018,0.796157,0.711114,0.766294,0.766294,0.711114,0.796157,0.639018,0.796157,0.603843,0.800000,0.600000,0.800000,-0.600000,0.796157,-0.603843,0.796157,-0.639018,0.766294,-0.711114,0.711114,-0.766294,0.639018,-0.796157,0.603843,-0.796157,0.600000,-0.800000,0.000000,-0.800000,0.000000,-0.796148,-0.078414,-0.796148,-0.232228,-0.765552,-0.377117,-0.705537,
-0.507515,-0.618408,-0.618408,-0.507515,-0.705537,-0.377117,-0.765552,-0.232228,-0.796148,-0.078414,-0.796148,0.078414,-0.765552,0.232228,-0.705537,0.377117,-0.618408,0.507515,-0.507515,0.618408,-0.377117,0.705537,-0.232228,0.765552,-0.078414,0.796148,0.000000,0.796148,0.000000,0.800000,0.600000,0.800000,0.603843,0.796157,0.603843,0.796157,$1*%
%AMFreePoly1*
4,1,37,0.000000,0.796148,0.078414,0.796148,0.232228,0.765552,0.377117,0.705537,0.507515,0.618408,0.618408,0.507515,0.705537,0.377117,0.765552,0.232228,0.796148,0.078414,0.796148,-0.078414,0.765552,-0.232228,0.705537,-0.377117,0.618408,-0.507515,0.507515,-0.618408,0.377117,-0.705537,0.232228,-0.765552,0.078414,-0.796148,0.000000,-0.796148,0.000000,-0.800000,-0.600000,-0.800000,
-0.603843,-0.796157,-0.639018,-0.796157,-0.711114,-0.766294,-0.766294,-0.711114,-0.796157,-0.639018,-0.796157,-0.603843,-0.800000,-0.600000,-0.800000,0.600000,-0.796157,0.603843,-0.796157,0.639018,-0.766294,0.711114,-0.711114,0.766294,-0.639018,0.796157,-0.603843,0.796157,-0.600000,0.800000,0.000000,0.800000,0.000000,0.796148,0.000000,0.796148,$1*%
G04 Aperture macros list end*
%ADD10C,0.150000*%
%ADD11C,0.120000*%
%ADD12C,2.200000*%
%ADD13C,1.850000*%
%ADD14RoundRect,0.200000X-0.600000X-0.600000X0.600000X-0.600000X0.600000X0.600000X-0.600000X0.600000X0*%
%ADD15C,1.600000*%
%ADD16FreePoly0,0.000000*%
%ADD17FreePoly1,0.000000*%
%ADD18C,2.000000*%
%ADD19R,1.700000X1.700000*%
%ADD20C,1.700000*%
%ADD21R,2.000000X2.000000*%
%ADD22C,3.600000*%
%ADD23C,5.700000*%
%ADD24R,2.000000X0.900000*%
%ADD25RoundRect,1.025000X1.025000X-1.025000X1.025000X1.025000X-1.025000X1.025000X-1.025000X-1.025000X0*%
%ADD26C,4.100000*%
%ADD27RoundRect,0.250000X0.350000X0.625000X-0.350000X0.625000X-0.350000X-0.625000X0.350000X-0.625000X0*%
%ADD28O,1.200000X1.750000*%
%ADD29R,1.000000X1.500000*%
%ADD30R,1.500000X1.000000*%
G04 APERTURE END LIST*
D10*
X104841792Y-73274580D02*
X104889411Y-73322200D01*
X104889411Y-73322200D02*
X105032268Y-73369819D01*
X105032268Y-73369819D02*
X105127506Y-73369819D01*
X105127506Y-73369819D02*
X105270363Y-73322200D01*
X105270363Y-73322200D02*
X105365601Y-73226961D01*
X105365601Y-73226961D02*
X105413220Y-73131723D01*
X105413220Y-73131723D02*
X105460839Y-72941247D01*
X105460839Y-72941247D02*
X105460839Y-72798390D01*
X105460839Y-72798390D02*
X105413220Y-72607914D01*
X105413220Y-72607914D02*
X105365601Y-72512676D01*
X105365601Y-72512676D02*
X105270363Y-72417438D01*
X105270363Y-72417438D02*
X105127506Y-72369819D01*
X105127506Y-72369819D02*
X105032268Y-72369819D01*
X105032268Y-72369819D02*
X104889411Y-72417438D01*
X104889411Y-72417438D02*
X104841792Y-72465057D01*
X104413220Y-73369819D02*
X104413220Y-72369819D01*
X104413220Y-72846009D02*
X103841792Y-72846009D01*
X103841792Y-73369819D02*
X103841792Y-72369819D01*
X103460839Y-72369819D02*
X102841792Y-72369819D01*
X102841792Y-72369819D02*
X103175125Y-72750771D01*
X103175125Y-72750771D02*
X103032268Y-72750771D01*
X103032268Y-72750771D02*
X102937030Y-72798390D01*
X102937030Y-72798390D02*
X102889411Y-72846009D01*
X102889411Y-72846009D02*
X102841792Y-72941247D01*
X102841792Y-72941247D02*
X102841792Y-73179342D01*
X102841792Y-73179342D02*
X102889411Y-73274580D01*
X102889411Y-73274580D02*
X102937030Y-73322200D01*
X102937030Y-73322200D02*
X103032268Y-73369819D01*
X103032268Y-73369819D02*
X103317982Y-73369819D01*
X103317982Y-73369819D02*
X103413220Y-73322200D01*
X103413220Y-73322200D02*
X103460839Y-73274580D01*
X104841792Y-109024580D02*
X104889411Y-109072200D01*
X104889411Y-109072200D02*
X105032268Y-109119819D01*
X105032268Y-109119819D02*
X105127506Y-109119819D01*
X105127506Y-109119819D02*
X105270363Y-109072200D01*
X105270363Y-109072200D02*
X105365601Y-108976961D01*
X105365601Y-108976961D02*
X105413220Y-108881723D01*
X105413220Y-108881723D02*
X105460839Y-108691247D01*
X105460839Y-108691247D02*
X105460839Y-108548390D01*
X105460839Y-108548390D02*
X105413220Y-108357914D01*
X105413220Y-108357914D02*
X105365601Y-108262676D01*
X105365601Y-108262676D02*
X105270363Y-108167438D01*
X105270363Y-108167438D02*
X105127506Y-108119819D01*
X105127506Y-108119819D02*
X105032268Y-108119819D01*
X105032268Y-108119819D02*
X104889411Y-108167438D01*
X104889411Y-108167438D02*
X104841792Y-108215057D01*
X104413220Y-109119819D02*
X104413220Y-108119819D01*
X104413220Y-108596009D02*
X103841792Y-108596009D01*
X103841792Y-109119819D02*
X103841792Y-108119819D01*
X102937030Y-108119819D02*
X103127506Y-108119819D01*
X103127506Y-108119819D02*
X103222744Y-108167438D01*
X103222744Y-108167438D02*
X103270363Y-108215057D01*
X103270363Y-108215057D02*
X103365601Y-108357914D01*
X103365601Y-108357914D02*
X103413220Y-108548390D01*
X103413220Y-108548390D02*
X103413220Y-108929342D01*
X103413220Y-108929342D02*
X103365601Y-109024580D01*
X103365601Y-109024580D02*
X103317982Y-109072200D01*
X103317982Y-109072200D02*
X103222744Y-109119819D01*
X103222744Y-109119819D02*
X103032268Y-109119819D01*
X103032268Y-109119819D02*
X102937030Y-109072200D01*
X102937030Y-109072200D02*
X102889411Y-109024580D01*
X102889411Y-109024580D02*
X102841792Y-108929342D01*
X102841792Y-108929342D02*
X102841792Y-108691247D01*
X102841792Y-108691247D02*
X102889411Y-108596009D01*
X102889411Y-108596009D02*
X102937030Y-108548390D01*
X102937030Y-108548390D02*
X103032268Y-108500771D01*
X103032268Y-108500771D02*
X103222744Y-108500771D01*
X103222744Y-108500771D02*
X103317982Y-108548390D01*
X103317982Y-108548390D02*
X103365601Y-108596009D01*
X103365601Y-108596009D02*
X103413220Y-108691247D01*
X38239410Y-43369819D02*
X38572743Y-42893628D01*
X38810838Y-43369819D02*
X38810838Y-42369819D01*
X38810838Y-42369819D02*
X38429886Y-42369819D01*
X38429886Y-42369819D02*
X38334648Y-42417438D01*
X38334648Y-42417438D02*
X38287029Y-42465057D01*
X38287029Y-42465057D02*
X38239410Y-42560295D01*
X38239410Y-42560295D02*
X38239410Y-42703152D01*
X38239410Y-42703152D02*
X38287029Y-42798390D01*
X38287029Y-42798390D02*
X38334648Y-42846009D01*
X38334648Y-42846009D02*
X38429886Y-42893628D01*
X38429886Y-42893628D02*
X38810838Y-42893628D01*
X37906076Y-42369819D02*
X37239410Y-43369819D01*
X37239410Y-42369819D02*
X37906076Y-43369819D01*
X104721792Y-121274580D02*
X104769411Y-121322200D01*
X104769411Y-121322200D02*
X104912268Y-121369819D01*
X104912268Y-121369819D02*
X105007506Y-121369819D01*
X105007506Y-121369819D02*
X105150363Y-121322200D01*
X105150363Y-121322200D02*
X105245601Y-121226961D01*
X105245601Y-121226961D02*
X105293220Y-121131723D01*
X105293220Y-121131723D02*
X105340839Y-120941247D01*
X105340839Y-120941247D02*
X105340839Y-120798390D01*
X105340839Y-120798390D02*
X105293220Y-120607914D01*
X105293220Y-120607914D02*
X105245601Y-120512676D01*
X105245601Y-120512676D02*
X105150363Y-120417438D01*
X105150363Y-120417438D02*
X105007506Y-120369819D01*
X105007506Y-120369819D02*
X104912268Y-120369819D01*
X104912268Y-120369819D02*
X104769411Y-120417438D01*
X104769411Y-120417438D02*
X104721792Y-120465057D01*
X104293220Y-121369819D02*
X104293220Y-120369819D01*
X104293220Y-120846009D02*
X103721792Y-120846009D01*
X103721792Y-121369819D02*
X103721792Y-120369819D01*
X103340839Y-120369819D02*
X102674173Y-120369819D01*
X102674173Y-120369819D02*
X103102744Y-121369819D01*
X39237029Y-45117438D02*
X39332267Y-45069819D01*
X39332267Y-45069819D02*
X39475124Y-45069819D01*
X39475124Y-45069819D02*
X39617981Y-45117438D01*
X39617981Y-45117438D02*
X39713219Y-45212676D01*
X39713219Y-45212676D02*
X39760838Y-45307914D01*
X39760838Y-45307914D02*
X39808457Y-45498390D01*
X39808457Y-45498390D02*
X39808457Y-45641247D01*
X39808457Y-45641247D02*
X39760838Y-45831723D01*
X39760838Y-45831723D02*
X39713219Y-45926961D01*
X39713219Y-45926961D02*
X39617981Y-46022200D01*
X39617981Y-46022200D02*
X39475124Y-46069819D01*
X39475124Y-46069819D02*
X39379886Y-46069819D01*
X39379886Y-46069819D02*
X39237029Y-46022200D01*
X39237029Y-46022200D02*
X39189410Y-45974580D01*
X39189410Y-45974580D02*
X39189410Y-45641247D01*
X39189410Y-45641247D02*
X39379886Y-45641247D01*
X38760838Y-46069819D02*
X38760838Y-45069819D01*
X38760838Y-45069819D02*
X38189410Y-46069819D01*
X38189410Y-46069819D02*
X38189410Y-45069819D01*
X37713219Y-46069819D02*
X37713219Y-45069819D01*
X37713219Y-45069819D02*
X37475124Y-45069819D01*
X37475124Y-45069819D02*
X37332267Y-45117438D01*
X37332267Y-45117438D02*
X37237029Y-45212676D01*
X37237029Y-45212676D02*
X37189410Y-45307914D01*
X37189410Y-45307914D02*
X37141791Y-45498390D01*
X37141791Y-45498390D02*
X37141791Y-45641247D01*
X37141791Y-45641247D02*
X37189410Y-45831723D01*
X37189410Y-45831723D02*
X37237029Y-45926961D01*
X37237029Y-45926961D02*
X37332267Y-46022200D01*
X37332267Y-46022200D02*
X37475124Y-46069819D01*
X37475124Y-46069819D02*
X37713219Y-46069819D01*
X102063220Y-45488866D02*
X101301316Y-45488866D01*
X101682268Y-45869819D02*
X101682268Y-45107914D01*
X86413220Y-127238866D02*
X85651316Y-127238866D01*
X86032268Y-127619819D02*
X86032268Y-126857914D01*
X84698935Y-126619819D02*
X85175125Y-126619819D01*
X85175125Y-126619819D02*
X85222744Y-127096009D01*
X85222744Y-127096009D02*
X85175125Y-127048390D01*
X85175125Y-127048390D02*
X85079887Y-127000771D01*
X85079887Y-127000771D02*
X84841792Y-127000771D01*
X84841792Y-127000771D02*
X84746554Y-127048390D01*
X84746554Y-127048390D02*
X84698935Y-127096009D01*
X84698935Y-127096009D02*
X84651316Y-127191247D01*
X84651316Y-127191247D02*
X84651316Y-127429342D01*
X84651316Y-127429342D02*
X84698935Y-127524580D01*
X84698935Y-127524580D02*
X84746554Y-127572200D01*
X84746554Y-127572200D02*
X84841792Y-127619819D01*
X84841792Y-127619819D02*
X85079887Y-127619819D01*
X85079887Y-127619819D02*
X85175125Y-127572200D01*
X85175125Y-127572200D02*
X85222744Y-127524580D01*
X84365601Y-126619819D02*
X84032268Y-127619819D01*
X84032268Y-127619819D02*
X83698935Y-126619819D01*
X38703695Y-39869819D02*
X38132267Y-39869819D01*
X38417981Y-40869819D02*
X38417981Y-39869819D01*
X37894171Y-39869819D02*
X37227505Y-40869819D01*
X37227505Y-39869819D02*
X37894171Y-40869819D01*
X80339411Y-131517438D02*
X80434649Y-131469819D01*
X80434649Y-131469819D02*
X80577506Y-131469819D01*
X80577506Y-131469819D02*
X80720363Y-131517438D01*
X80720363Y-131517438D02*
X80815601Y-131612676D01*
X80815601Y-131612676D02*
X80863220Y-131707914D01*
X80863220Y-131707914D02*
X80910839Y-131898390D01*
X80910839Y-131898390D02*
X80910839Y-132041247D01*
X80910839Y-132041247D02*
X80863220Y-132231723D01*
X80863220Y-132231723D02*
X80815601Y-132326961D01*
X80815601Y-132326961D02*
X80720363Y-132422200D01*
X80720363Y-132422200D02*
X80577506Y-132469819D01*
X80577506Y-132469819D02*
X80482268Y-132469819D01*
X80482268Y-132469819D02*
X80339411Y-132422200D01*
X80339411Y-132422200D02*
X80291792Y-132374580D01*
X80291792Y-132374580D02*
X80291792Y-132041247D01*
X80291792Y-132041247D02*
X80482268Y-132041247D01*
X79863220Y-132469819D02*
X79863220Y-131469819D01*
X79863220Y-131469819D02*
X79291792Y-132469819D01*
X79291792Y-132469819D02*
X79291792Y-131469819D01*
X78815601Y-132469819D02*
X78815601Y-131469819D01*
X78815601Y-131469819D02*
X78577506Y-131469819D01*
X78577506Y-131469819D02*
X78434649Y-131517438D01*
X78434649Y-131517438D02*
X78339411Y-131612676D01*
X78339411Y-131612676D02*
X78291792Y-131707914D01*
X78291792Y-131707914D02*
X78244173Y-131898390D01*
X78244173Y-131898390D02*
X78244173Y-132041247D01*
X78244173Y-132041247D02*
X78291792Y-132231723D01*
X78291792Y-132231723D02*
X78339411Y-132326961D01*
X78339411Y-132326961D02*
X78434649Y-132422200D01*
X78434649Y-132422200D02*
X78577506Y-132469819D01*
X78577506Y-132469819D02*
X78815601Y-132469819D01*
X102063220Y-38288866D02*
X101301316Y-38288866D01*
X102263220Y-122088866D02*
X101501316Y-122088866D01*
X75163220Y-99488866D02*
X74401316Y-99488866D01*
X74782268Y-99869819D02*
X74782268Y-99107914D01*
X74020363Y-98869819D02*
X73401316Y-98869819D01*
X73401316Y-98869819D02*
X73734649Y-99250771D01*
X73734649Y-99250771D02*
X73591792Y-99250771D01*
X73591792Y-99250771D02*
X73496554Y-99298390D01*
X73496554Y-99298390D02*
X73448935Y-99346009D01*
X73448935Y-99346009D02*
X73401316Y-99441247D01*
X73401316Y-99441247D02*
X73401316Y-99679342D01*
X73401316Y-99679342D02*
X73448935Y-99774580D01*
X73448935Y-99774580D02*
X73496554Y-99822200D01*
X73496554Y-99822200D02*
X73591792Y-99869819D01*
X73591792Y-99869819D02*
X73877506Y-99869819D01*
X73877506Y-99869819D02*
X73972744Y-99822200D01*
X73972744Y-99822200D02*
X74020363Y-99774580D01*
X72972744Y-99774580D02*
X72925125Y-99822200D01*
X72925125Y-99822200D02*
X72972744Y-99869819D01*
X72972744Y-99869819D02*
X73020363Y-99822200D01*
X73020363Y-99822200D02*
X72972744Y-99774580D01*
X72972744Y-99774580D02*
X72972744Y-99869819D01*
X72591792Y-98869819D02*
X71972745Y-98869819D01*
X71972745Y-98869819D02*
X72306078Y-99250771D01*
X72306078Y-99250771D02*
X72163221Y-99250771D01*
X72163221Y-99250771D02*
X72067983Y-99298390D01*
X72067983Y-99298390D02*
X72020364Y-99346009D01*
X72020364Y-99346009D02*
X71972745Y-99441247D01*
X71972745Y-99441247D02*
X71972745Y-99679342D01*
X71972745Y-99679342D02*
X72020364Y-99774580D01*
X72020364Y-99774580D02*
X72067983Y-99822200D01*
X72067983Y-99822200D02*
X72163221Y-99869819D01*
X72163221Y-99869819D02*
X72448935Y-99869819D01*
X72448935Y-99869819D02*
X72544173Y-99822200D01*
X72544173Y-99822200D02*
X72591792Y-99774580D01*
X71687030Y-98869819D02*
X71353697Y-99869819D01*
X71353697Y-99869819D02*
X71020364Y-98869819D01*
X39656076Y-37469819D02*
X39037029Y-37469819D01*
X39037029Y-37469819D02*
X39370362Y-37850771D01*
X39370362Y-37850771D02*
X39227505Y-37850771D01*
X39227505Y-37850771D02*
X39132267Y-37898390D01*
X39132267Y-37898390D02*
X39084648Y-37946009D01*
X39084648Y-37946009D02*
X39037029Y-38041247D01*
X39037029Y-38041247D02*
X39037029Y-38279342D01*
X39037029Y-38279342D02*
X39084648Y-38374580D01*
X39084648Y-38374580D02*
X39132267Y-38422200D01*
X39132267Y-38422200D02*
X39227505Y-38469819D01*
X39227505Y-38469819D02*
X39513219Y-38469819D01*
X39513219Y-38469819D02*
X39608457Y-38422200D01*
X39608457Y-38422200D02*
X39656076Y-38374580D01*
X38751314Y-37469819D02*
X38417981Y-38469819D01*
X38417981Y-38469819D02*
X38084648Y-37469819D01*
X37846552Y-37469819D02*
X37227505Y-37469819D01*
X37227505Y-37469819D02*
X37560838Y-37850771D01*
X37560838Y-37850771D02*
X37417981Y-37850771D01*
X37417981Y-37850771D02*
X37322743Y-37898390D01*
X37322743Y-37898390D02*
X37275124Y-37946009D01*
X37275124Y-37946009D02*
X37227505Y-38041247D01*
X37227505Y-38041247D02*
X37227505Y-38279342D01*
X37227505Y-38279342D02*
X37275124Y-38374580D01*
X37275124Y-38374580D02*
X37322743Y-38422200D01*
X37322743Y-38422200D02*
X37417981Y-38469819D01*
X37417981Y-38469819D02*
X37703695Y-38469819D01*
X37703695Y-38469819D02*
X37798933Y-38422200D01*
X37798933Y-38422200D02*
X37846552Y-38374580D01*
X59942856Y-119269819D02*
X59942856Y-118269819D01*
X59942856Y-118269819D02*
X59561904Y-118269819D01*
X59561904Y-118269819D02*
X59466666Y-118317438D01*
X59466666Y-118317438D02*
X59419047Y-118365057D01*
X59419047Y-118365057D02*
X59371428Y-118460295D01*
X59371428Y-118460295D02*
X59371428Y-118603152D01*
X59371428Y-118603152D02*
X59419047Y-118698390D01*
X59419047Y-118698390D02*
X59466666Y-118746009D01*
X59466666Y-118746009D02*
X59561904Y-118793628D01*
X59561904Y-118793628D02*
X59942856Y-118793628D01*
X59085713Y-118269819D02*
X58514285Y-118269819D01*
X58799999Y-119269819D02*
X58799999Y-118269819D01*
X57609523Y-119174580D02*
X57657142Y-119222200D01*
X57657142Y-119222200D02*
X57799999Y-119269819D01*
X57799999Y-119269819D02*
X57895237Y-119269819D01*
X57895237Y-119269819D02*
X58038094Y-119222200D01*
X58038094Y-119222200D02*
X58133332Y-119126961D01*
X58133332Y-119126961D02*
X58180951Y-119031723D01*
X58180951Y-119031723D02*
X58228570Y-118841247D01*
X58228570Y-118841247D02*
X58228570Y-118698390D01*
X58228570Y-118698390D02*
X58180951Y-118507914D01*
X58180951Y-118507914D02*
X58133332Y-118412676D01*
X58133332Y-118412676D02*
X58038094Y-118317438D01*
X58038094Y-118317438D02*
X57895237Y-118269819D01*
X57895237Y-118269819D02*
X57799999Y-118269819D01*
X57799999Y-118269819D02*
X57657142Y-118317438D01*
X57657142Y-118317438D02*
X57609523Y-118365057D01*
X39117730Y-96572200D02*
X38974873Y-96619819D01*
X38974873Y-96619819D02*
X38736778Y-96619819D01*
X38736778Y-96619819D02*
X38641540Y-96572200D01*
X38641540Y-96572200D02*
X38593921Y-96524580D01*
X38593921Y-96524580D02*
X38546302Y-96429342D01*
X38546302Y-96429342D02*
X38546302Y-96334104D01*
X38546302Y-96334104D02*
X38593921Y-96238866D01*
X38593921Y-96238866D02*
X38641540Y-96191247D01*
X38641540Y-96191247D02*
X38736778Y-96143628D01*
X38736778Y-96143628D02*
X38927254Y-96096009D01*
X38927254Y-96096009D02*
X39022492Y-96048390D01*
X39022492Y-96048390D02*
X39070111Y-96000771D01*
X39070111Y-96000771D02*
X39117730Y-95905533D01*
X39117730Y-95905533D02*
X39117730Y-95810295D01*
X39117730Y-95810295D02*
X39070111Y-95715057D01*
X39070111Y-95715057D02*
X39022492Y-95667438D01*
X39022492Y-95667438D02*
X38927254Y-95619819D01*
X38927254Y-95619819D02*
X38689159Y-95619819D01*
X38689159Y-95619819D02*
X38546302Y-95667438D01*
X37546302Y-96524580D02*
X37593921Y-96572200D01*
X37593921Y-96572200D02*
X37736778Y-96619819D01*
X37736778Y-96619819D02*
X37832016Y-96619819D01*
X37832016Y-96619819D02*
X37974873Y-96572200D01*
X37974873Y-96572200D02*
X38070111Y-96476961D01*
X38070111Y-96476961D02*
X38117730Y-96381723D01*
X38117730Y-96381723D02*
X38165349Y-96191247D01*
X38165349Y-96191247D02*
X38165349Y-96048390D01*
X38165349Y-96048390D02*
X38117730Y-95857914D01*
X38117730Y-95857914D02*
X38070111Y-95762676D01*
X38070111Y-95762676D02*
X37974873Y-95667438D01*
X37974873Y-95667438D02*
X37832016Y-95619819D01*
X37832016Y-95619819D02*
X37736778Y-95619819D01*
X37736778Y-95619819D02*
X37593921Y-95667438D01*
X37593921Y-95667438D02*
X37546302Y-95715057D01*
X36641540Y-96619819D02*
X37117730Y-96619819D01*
X37117730Y-96619819D02*
X37117730Y-95619819D01*
X80419047Y-42469819D02*
X80895237Y-42469819D01*
X80895237Y-42469819D02*
X80942856Y-42946009D01*
X80942856Y-42946009D02*
X80895237Y-42898390D01*
X80895237Y-42898390D02*
X80799999Y-42850771D01*
X80799999Y-42850771D02*
X80561904Y-42850771D01*
X80561904Y-42850771D02*
X80466666Y-42898390D01*
X80466666Y-42898390D02*
X80419047Y-42946009D01*
X80419047Y-42946009D02*
X80371428Y-43041247D01*
X80371428Y-43041247D02*
X80371428Y-43279342D01*
X80371428Y-43279342D02*
X80419047Y-43374580D01*
X80419047Y-43374580D02*
X80466666Y-43422200D01*
X80466666Y-43422200D02*
X80561904Y-43469819D01*
X80561904Y-43469819D02*
X80799999Y-43469819D01*
X80799999Y-43469819D02*
X80895237Y-43422200D01*
X80895237Y-43422200D02*
X80942856Y-43374580D01*
X80085713Y-42469819D02*
X79752380Y-43469819D01*
X79752380Y-43469819D02*
X79419047Y-42469819D01*
X79085713Y-43088866D02*
X78323809Y-43088866D01*
X77990475Y-42469819D02*
X77657142Y-43469819D01*
X77657142Y-43469819D02*
X77323809Y-42469819D01*
X77038094Y-43422200D02*
X76895237Y-43469819D01*
X76895237Y-43469819D02*
X76657142Y-43469819D01*
X76657142Y-43469819D02*
X76561904Y-43422200D01*
X76561904Y-43422200D02*
X76514285Y-43374580D01*
X76514285Y-43374580D02*
X76466666Y-43279342D01*
X76466666Y-43279342D02*
X76466666Y-43184104D01*
X76466666Y-43184104D02*
X76514285Y-43088866D01*
X76514285Y-43088866D02*
X76561904Y-43041247D01*
X76561904Y-43041247D02*
X76657142Y-42993628D01*
X76657142Y-42993628D02*
X76847618Y-42946009D01*
X76847618Y-42946009D02*
X76942856Y-42898390D01*
X76942856Y-42898390D02*
X76990475Y-42850771D01*
X76990475Y-42850771D02*
X77038094Y-42755533D01*
X77038094Y-42755533D02*
X77038094Y-42660295D01*
X77038094Y-42660295D02*
X76990475Y-42565057D01*
X76990475Y-42565057D02*
X76942856Y-42517438D01*
X76942856Y-42517438D02*
X76847618Y-42469819D01*
X76847618Y-42469819D02*
X76609523Y-42469819D01*
X76609523Y-42469819D02*
X76466666Y-42517438D01*
X75847618Y-42993628D02*
X75847618Y-43469819D01*
X76180951Y-42469819D02*
X75847618Y-42993628D01*
X75847618Y-42993628D02*
X75514285Y-42469819D01*
X75228570Y-43422200D02*
X75085713Y-43469819D01*
X75085713Y-43469819D02*
X74847618Y-43469819D01*
X74847618Y-43469819D02*
X74752380Y-43422200D01*
X74752380Y-43422200D02*
X74704761Y-43374580D01*
X74704761Y-43374580D02*
X74657142Y-43279342D01*
X74657142Y-43279342D02*
X74657142Y-43184104D01*
X74657142Y-43184104D02*
X74704761Y-43088866D01*
X74704761Y-43088866D02*
X74752380Y-43041247D01*
X74752380Y-43041247D02*
X74847618Y-42993628D01*
X74847618Y-42993628D02*
X75038094Y-42946009D01*
X75038094Y-42946009D02*
X75133332Y-42898390D01*
X75133332Y-42898390D02*
X75180951Y-42850771D01*
X75180951Y-42850771D02*
X75228570Y-42755533D01*
X75228570Y-42755533D02*
X75228570Y-42660295D01*
X75228570Y-42660295D02*
X75180951Y-42565057D01*
X75180951Y-42565057D02*
X75133332Y-42517438D01*
X75133332Y-42517438D02*
X75038094Y-42469819D01*
X75038094Y-42469819D02*
X74799999Y-42469819D01*
X74799999Y-42469819D02*
X74657142Y-42517438D01*
X104961792Y-49274580D02*
X105009411Y-49322200D01*
X105009411Y-49322200D02*
X105152268Y-49369819D01*
X105152268Y-49369819D02*
X105247506Y-49369819D01*
X105247506Y-49369819D02*
X105390363Y-49322200D01*
X105390363Y-49322200D02*
X105485601Y-49226961D01*
X105485601Y-49226961D02*
X105533220Y-49131723D01*
X105533220Y-49131723D02*
X105580839Y-48941247D01*
X105580839Y-48941247D02*
X105580839Y-48798390D01*
X105580839Y-48798390D02*
X105533220Y-48607914D01*
X105533220Y-48607914D02*
X105485601Y-48512676D01*
X105485601Y-48512676D02*
X105390363Y-48417438D01*
X105390363Y-48417438D02*
X105247506Y-48369819D01*
X105247506Y-48369819D02*
X105152268Y-48369819D01*
X105152268Y-48369819D02*
X105009411Y-48417438D01*
X105009411Y-48417438D02*
X104961792Y-48465057D01*
X104533220Y-49369819D02*
X104533220Y-48369819D01*
X104533220Y-48846009D02*
X103961792Y-48846009D01*
X103961792Y-49369819D02*
X103961792Y-48369819D01*
X102961792Y-49369819D02*
X103533220Y-49369819D01*
X103247506Y-49369819D02*
X103247506Y-48369819D01*
X103247506Y-48369819D02*
X103342744Y-48512676D01*
X103342744Y-48512676D02*
X103437982Y-48607914D01*
X103437982Y-48607914D02*
X103533220Y-48655533D01*
X39158457Y-99072200D02*
X39015600Y-99119819D01*
X39015600Y-99119819D02*
X38777505Y-99119819D01*
X38777505Y-99119819D02*
X38682267Y-99072200D01*
X38682267Y-99072200D02*
X38634648Y-99024580D01*
X38634648Y-99024580D02*
X38587029Y-98929342D01*
X38587029Y-98929342D02*
X38587029Y-98834104D01*
X38587029Y-98834104D02*
X38634648Y-98738866D01*
X38634648Y-98738866D02*
X38682267Y-98691247D01*
X38682267Y-98691247D02*
X38777505Y-98643628D01*
X38777505Y-98643628D02*
X38967981Y-98596009D01*
X38967981Y-98596009D02*
X39063219Y-98548390D01*
X39063219Y-98548390D02*
X39110838Y-98500771D01*
X39110838Y-98500771D02*
X39158457Y-98405533D01*
X39158457Y-98405533D02*
X39158457Y-98310295D01*
X39158457Y-98310295D02*
X39110838Y-98215057D01*
X39110838Y-98215057D02*
X39063219Y-98167438D01*
X39063219Y-98167438D02*
X38967981Y-98119819D01*
X38967981Y-98119819D02*
X38729886Y-98119819D01*
X38729886Y-98119819D02*
X38587029Y-98167438D01*
X38158457Y-99119819D02*
X38158457Y-98119819D01*
X38158457Y-98119819D02*
X37920362Y-98119819D01*
X37920362Y-98119819D02*
X37777505Y-98167438D01*
X37777505Y-98167438D02*
X37682267Y-98262676D01*
X37682267Y-98262676D02*
X37634648Y-98357914D01*
X37634648Y-98357914D02*
X37587029Y-98548390D01*
X37587029Y-98548390D02*
X37587029Y-98691247D01*
X37587029Y-98691247D02*
X37634648Y-98881723D01*
X37634648Y-98881723D02*
X37682267Y-98976961D01*
X37682267Y-98976961D02*
X37777505Y-99072200D01*
X37777505Y-99072200D02*
X37920362Y-99119819D01*
X37920362Y-99119819D02*
X38158457Y-99119819D01*
X37206076Y-98834104D02*
X36729886Y-98834104D01*
X37301314Y-99119819D02*
X36967981Y-98119819D01*
X36967981Y-98119819D02*
X36634648Y-99119819D01*
X38637029Y-90317438D02*
X38732267Y-90269819D01*
X38732267Y-90269819D02*
X38875124Y-90269819D01*
X38875124Y-90269819D02*
X39017981Y-90317438D01*
X39017981Y-90317438D02*
X39113219Y-90412676D01*
X39113219Y-90412676D02*
X39160838Y-90507914D01*
X39160838Y-90507914D02*
X39208457Y-90698390D01*
X39208457Y-90698390D02*
X39208457Y-90841247D01*
X39208457Y-90841247D02*
X39160838Y-91031723D01*
X39160838Y-91031723D02*
X39113219Y-91126961D01*
X39113219Y-91126961D02*
X39017981Y-91222200D01*
X39017981Y-91222200D02*
X38875124Y-91269819D01*
X38875124Y-91269819D02*
X38779886Y-91269819D01*
X38779886Y-91269819D02*
X38637029Y-91222200D01*
X38637029Y-91222200D02*
X38589410Y-91174580D01*
X38589410Y-91174580D02*
X38589410Y-90841247D01*
X38589410Y-90841247D02*
X38779886Y-90841247D01*
X38160838Y-91269819D02*
X38160838Y-90269819D01*
X38160838Y-90269819D02*
X37589410Y-91269819D01*
X37589410Y-91269819D02*
X37589410Y-90269819D01*
X37113219Y-91269819D02*
X37113219Y-90269819D01*
X37113219Y-90269819D02*
X36875124Y-90269819D01*
X36875124Y-90269819D02*
X36732267Y-90317438D01*
X36732267Y-90317438D02*
X36637029Y-90412676D01*
X36637029Y-90412676D02*
X36589410Y-90507914D01*
X36589410Y-90507914D02*
X36541791Y-90698390D01*
X36541791Y-90698390D02*
X36541791Y-90841247D01*
X36541791Y-90841247D02*
X36589410Y-91031723D01*
X36589410Y-91031723D02*
X36637029Y-91126961D01*
X36637029Y-91126961D02*
X36732267Y-91222200D01*
X36732267Y-91222200D02*
X36875124Y-91269819D01*
X36875124Y-91269819D02*
X37113219Y-91269819D01*
X89238095Y-30469819D02*
X89714285Y-30469819D01*
X89714285Y-30469819D02*
X89761904Y-30946009D01*
X89761904Y-30946009D02*
X89714285Y-30898390D01*
X89714285Y-30898390D02*
X89619047Y-30850771D01*
X89619047Y-30850771D02*
X89380952Y-30850771D01*
X89380952Y-30850771D02*
X89285714Y-30898390D01*
X89285714Y-30898390D02*
X89238095Y-30946009D01*
X89238095Y-30946009D02*
X89190476Y-31041247D01*
X89190476Y-31041247D02*
X89190476Y-31279342D01*
X89190476Y-31279342D02*
X89238095Y-31374580D01*
X89238095Y-31374580D02*
X89285714Y-31422200D01*
X89285714Y-31422200D02*
X89380952Y-31469819D01*
X89380952Y-31469819D02*
X89619047Y-31469819D01*
X89619047Y-31469819D02*
X89714285Y-31422200D01*
X89714285Y-31422200D02*
X89761904Y-31374580D01*
X88904761Y-30469819D02*
X88571428Y-31469819D01*
X88571428Y-31469819D02*
X88238095Y-30469819D01*
X87904761Y-31088866D02*
X87142857Y-31088866D01*
X86714285Y-31184104D02*
X86238095Y-31184104D01*
X86809523Y-31469819D02*
X86476190Y-30469819D01*
X86476190Y-30469819D02*
X86142857Y-31469819D01*
X85809523Y-30469819D02*
X85809523Y-31279342D01*
X85809523Y-31279342D02*
X85761904Y-31374580D01*
X85761904Y-31374580D02*
X85714285Y-31422200D01*
X85714285Y-31422200D02*
X85619047Y-31469819D01*
X85619047Y-31469819D02*
X85428571Y-31469819D01*
X85428571Y-31469819D02*
X85333333Y-31422200D01*
X85333333Y-31422200D02*
X85285714Y-31374580D01*
X85285714Y-31374580D02*
X85238095Y-31279342D01*
X85238095Y-31279342D02*
X85238095Y-30469819D01*
X84857142Y-30469819D02*
X84190476Y-31469819D01*
X84190476Y-30469819D02*
X84857142Y-31469819D01*
X102263220Y-129288866D02*
X101501316Y-129288866D01*
X101882268Y-129669819D02*
X101882268Y-128907914D01*
X104841792Y-37274580D02*
X104889411Y-37322200D01*
X104889411Y-37322200D02*
X105032268Y-37369819D01*
X105032268Y-37369819D02*
X105127506Y-37369819D01*
X105127506Y-37369819D02*
X105270363Y-37322200D01*
X105270363Y-37322200D02*
X105365601Y-37226961D01*
X105365601Y-37226961D02*
X105413220Y-37131723D01*
X105413220Y-37131723D02*
X105460839Y-36941247D01*
X105460839Y-36941247D02*
X105460839Y-36798390D01*
X105460839Y-36798390D02*
X105413220Y-36607914D01*
X105413220Y-36607914D02*
X105365601Y-36512676D01*
X105365601Y-36512676D02*
X105270363Y-36417438D01*
X105270363Y-36417438D02*
X105127506Y-36369819D01*
X105127506Y-36369819D02*
X105032268Y-36369819D01*
X105032268Y-36369819D02*
X104889411Y-36417438D01*
X104889411Y-36417438D02*
X104841792Y-36465057D01*
X104413220Y-37369819D02*
X104413220Y-36369819D01*
X104413220Y-36846009D02*
X103841792Y-36846009D01*
X103841792Y-37369819D02*
X103841792Y-36369819D01*
X103175125Y-36369819D02*
X103079887Y-36369819D01*
X103079887Y-36369819D02*
X102984649Y-36417438D01*
X102984649Y-36417438D02*
X102937030Y-36465057D01*
X102937030Y-36465057D02*
X102889411Y-36560295D01*
X102889411Y-36560295D02*
X102841792Y-36750771D01*
X102841792Y-36750771D02*
X102841792Y-36988866D01*
X102841792Y-36988866D02*
X102889411Y-37179342D01*
X102889411Y-37179342D02*
X102937030Y-37274580D01*
X102937030Y-37274580D02*
X102984649Y-37322200D01*
X102984649Y-37322200D02*
X103079887Y-37369819D01*
X103079887Y-37369819D02*
X103175125Y-37369819D01*
X103175125Y-37369819D02*
X103270363Y-37322200D01*
X103270363Y-37322200D02*
X103317982Y-37274580D01*
X103317982Y-37274580D02*
X103365601Y-37179342D01*
X103365601Y-37179342D02*
X103413220Y-36988866D01*
X103413220Y-36988866D02*
X103413220Y-36750771D01*
X103413220Y-36750771D02*
X103365601Y-36560295D01*
X103365601Y-36560295D02*
X103317982Y-36465057D01*
X103317982Y-36465057D02*
X103270363Y-36417438D01*
X103270363Y-36417438D02*
X103175125Y-36369819D01*
X104841792Y-97274580D02*
X104889411Y-97322200D01*
X104889411Y-97322200D02*
X105032268Y-97369819D01*
X105032268Y-97369819D02*
X105127506Y-97369819D01*
X105127506Y-97369819D02*
X105270363Y-97322200D01*
X105270363Y-97322200D02*
X105365601Y-97226961D01*
X105365601Y-97226961D02*
X105413220Y-97131723D01*
X105413220Y-97131723D02*
X105460839Y-96941247D01*
X105460839Y-96941247D02*
X105460839Y-96798390D01*
X105460839Y-96798390D02*
X105413220Y-96607914D01*
X105413220Y-96607914D02*
X105365601Y-96512676D01*
X105365601Y-96512676D02*
X105270363Y-96417438D01*
X105270363Y-96417438D02*
X105127506Y-96369819D01*
X105127506Y-96369819D02*
X105032268Y-96369819D01*
X105032268Y-96369819D02*
X104889411Y-96417438D01*
X104889411Y-96417438D02*
X104841792Y-96465057D01*
X104413220Y-97369819D02*
X104413220Y-96369819D01*
X104413220Y-96846009D02*
X103841792Y-96846009D01*
X103841792Y-97369819D02*
X103841792Y-96369819D01*
X102889411Y-96369819D02*
X103365601Y-96369819D01*
X103365601Y-96369819D02*
X103413220Y-96846009D01*
X103413220Y-96846009D02*
X103365601Y-96798390D01*
X103365601Y-96798390D02*
X103270363Y-96750771D01*
X103270363Y-96750771D02*
X103032268Y-96750771D01*
X103032268Y-96750771D02*
X102937030Y-96798390D01*
X102937030Y-96798390D02*
X102889411Y-96846009D01*
X102889411Y-96846009D02*
X102841792Y-96941247D01*
X102841792Y-96941247D02*
X102841792Y-97179342D01*
X102841792Y-97179342D02*
X102889411Y-97274580D01*
X102889411Y-97274580D02*
X102937030Y-97322200D01*
X102937030Y-97322200D02*
X103032268Y-97369819D01*
X103032268Y-97369819D02*
X103270363Y-97369819D01*
X103270363Y-97369819D02*
X103365601Y-97322200D01*
X103365601Y-97322200D02*
X103413220Y-97274580D01*
X104961792Y-61024580D02*
X105009411Y-61072200D01*
X105009411Y-61072200D02*
X105152268Y-61119819D01*
X105152268Y-61119819D02*
X105247506Y-61119819D01*
X105247506Y-61119819D02*
X105390363Y-61072200D01*
X105390363Y-61072200D02*
X105485601Y-60976961D01*
X105485601Y-60976961D02*
X105533220Y-60881723D01*
X105533220Y-60881723D02*
X105580839Y-60691247D01*
X105580839Y-60691247D02*
X105580839Y-60548390D01*
X105580839Y-60548390D02*
X105533220Y-60357914D01*
X105533220Y-60357914D02*
X105485601Y-60262676D01*
X105485601Y-60262676D02*
X105390363Y-60167438D01*
X105390363Y-60167438D02*
X105247506Y-60119819D01*
X105247506Y-60119819D02*
X105152268Y-60119819D01*
X105152268Y-60119819D02*
X105009411Y-60167438D01*
X105009411Y-60167438D02*
X104961792Y-60215057D01*
X104533220Y-61119819D02*
X104533220Y-60119819D01*
X104533220Y-60596009D02*
X103961792Y-60596009D01*
X103961792Y-61119819D02*
X103961792Y-60119819D01*
X103533220Y-60215057D02*
X103485601Y-60167438D01*
X103485601Y-60167438D02*
X103390363Y-60119819D01*
X103390363Y-60119819D02*
X103152268Y-60119819D01*
X103152268Y-60119819D02*
X103057030Y-60167438D01*
X103057030Y-60167438D02*
X103009411Y-60215057D01*
X103009411Y-60215057D02*
X102961792Y-60310295D01*
X102961792Y-60310295D02*
X102961792Y-60405533D01*
X102961792Y-60405533D02*
X103009411Y-60548390D01*
X103009411Y-60548390D02*
X103580839Y-61119819D01*
X103580839Y-61119819D02*
X102961792Y-61119819D01*
X39056076Y-93069819D02*
X38437029Y-93069819D01*
X38437029Y-93069819D02*
X38770362Y-93450771D01*
X38770362Y-93450771D02*
X38627505Y-93450771D01*
X38627505Y-93450771D02*
X38532267Y-93498390D01*
X38532267Y-93498390D02*
X38484648Y-93546009D01*
X38484648Y-93546009D02*
X38437029Y-93641247D01*
X38437029Y-93641247D02*
X38437029Y-93879342D01*
X38437029Y-93879342D02*
X38484648Y-93974580D01*
X38484648Y-93974580D02*
X38532267Y-94022200D01*
X38532267Y-94022200D02*
X38627505Y-94069819D01*
X38627505Y-94069819D02*
X38913219Y-94069819D01*
X38913219Y-94069819D02*
X39008457Y-94022200D01*
X39008457Y-94022200D02*
X39056076Y-93974580D01*
X38151314Y-93069819D02*
X37817981Y-94069819D01*
X37817981Y-94069819D02*
X37484648Y-93069819D01*
X37246552Y-93069819D02*
X36627505Y-93069819D01*
X36627505Y-93069819D02*
X36960838Y-93450771D01*
X36960838Y-93450771D02*
X36817981Y-93450771D01*
X36817981Y-93450771D02*
X36722743Y-93498390D01*
X36722743Y-93498390D02*
X36675124Y-93546009D01*
X36675124Y-93546009D02*
X36627505Y-93641247D01*
X36627505Y-93641247D02*
X36627505Y-93879342D01*
X36627505Y-93879342D02*
X36675124Y-93974580D01*
X36675124Y-93974580D02*
X36722743Y-94022200D01*
X36722743Y-94022200D02*
X36817981Y-94069819D01*
X36817981Y-94069819D02*
X37103695Y-94069819D01*
X37103695Y-94069819D02*
X37198933Y-94022200D01*
X37198933Y-94022200D02*
X37246552Y-93974580D01*
X104721792Y-85274580D02*
X104769411Y-85322200D01*
X104769411Y-85322200D02*
X104912268Y-85369819D01*
X104912268Y-85369819D02*
X105007506Y-85369819D01*
X105007506Y-85369819D02*
X105150363Y-85322200D01*
X105150363Y-85322200D02*
X105245601Y-85226961D01*
X105245601Y-85226961D02*
X105293220Y-85131723D01*
X105293220Y-85131723D02*
X105340839Y-84941247D01*
X105340839Y-84941247D02*
X105340839Y-84798390D01*
X105340839Y-84798390D02*
X105293220Y-84607914D01*
X105293220Y-84607914D02*
X105245601Y-84512676D01*
X105245601Y-84512676D02*
X105150363Y-84417438D01*
X105150363Y-84417438D02*
X105007506Y-84369819D01*
X105007506Y-84369819D02*
X104912268Y-84369819D01*
X104912268Y-84369819D02*
X104769411Y-84417438D01*
X104769411Y-84417438D02*
X104721792Y-84465057D01*
X104293220Y-85369819D02*
X104293220Y-84369819D01*
X104293220Y-84846009D02*
X103721792Y-84846009D01*
X103721792Y-85369819D02*
X103721792Y-84369819D01*
X102817030Y-84703152D02*
X102817030Y-85369819D01*
X103055125Y-84322200D02*
X103293220Y-85036485D01*
X103293220Y-85036485D02*
X102674173Y-85036485D01*
X91916666Y-73754580D02*
X91964285Y-73802200D01*
X91964285Y-73802200D02*
X92107142Y-73849819D01*
X92107142Y-73849819D02*
X92202380Y-73849819D01*
X92202380Y-73849819D02*
X92345237Y-73802200D01*
X92345237Y-73802200D02*
X92440475Y-73706961D01*
X92440475Y-73706961D02*
X92488094Y-73611723D01*
X92488094Y-73611723D02*
X92535713Y-73421247D01*
X92535713Y-73421247D02*
X92535713Y-73278390D01*
X92535713Y-73278390D02*
X92488094Y-73087914D01*
X92488094Y-73087914D02*
X92440475Y-72992676D01*
X92440475Y-72992676D02*
X92345237Y-72897438D01*
X92345237Y-72897438D02*
X92202380Y-72849819D01*
X92202380Y-72849819D02*
X92107142Y-72849819D01*
X92107142Y-72849819D02*
X91964285Y-72897438D01*
X91964285Y-72897438D02*
X91916666Y-72945057D01*
X91059523Y-72849819D02*
X91249999Y-72849819D01*
X91249999Y-72849819D02*
X91345237Y-72897438D01*
X91345237Y-72897438D02*
X91392856Y-72945057D01*
X91392856Y-72945057D02*
X91488094Y-73087914D01*
X91488094Y-73087914D02*
X91535713Y-73278390D01*
X91535713Y-73278390D02*
X91535713Y-73659342D01*
X91535713Y-73659342D02*
X91488094Y-73754580D01*
X91488094Y-73754580D02*
X91440475Y-73802200D01*
X91440475Y-73802200D02*
X91345237Y-73849819D01*
X91345237Y-73849819D02*
X91154761Y-73849819D01*
X91154761Y-73849819D02*
X91059523Y-73802200D01*
X91059523Y-73802200D02*
X91011904Y-73754580D01*
X91011904Y-73754580D02*
X90964285Y-73659342D01*
X90964285Y-73659342D02*
X90964285Y-73421247D01*
X90964285Y-73421247D02*
X91011904Y-73326009D01*
X91011904Y-73326009D02*
X91059523Y-73278390D01*
X91059523Y-73278390D02*
X91154761Y-73230771D01*
X91154761Y-73230771D02*
X91345237Y-73230771D01*
X91345237Y-73230771D02*
X91440475Y-73278390D01*
X91440475Y-73278390D02*
X91488094Y-73326009D01*
X91488094Y-73326009D02*
X91535713Y-73421247D01*
X92392857Y-121754580D02*
X92440476Y-121802200D01*
X92440476Y-121802200D02*
X92583333Y-121849819D01*
X92583333Y-121849819D02*
X92678571Y-121849819D01*
X92678571Y-121849819D02*
X92821428Y-121802200D01*
X92821428Y-121802200D02*
X92916666Y-121706961D01*
X92916666Y-121706961D02*
X92964285Y-121611723D01*
X92964285Y-121611723D02*
X93011904Y-121421247D01*
X93011904Y-121421247D02*
X93011904Y-121278390D01*
X93011904Y-121278390D02*
X92964285Y-121087914D01*
X92964285Y-121087914D02*
X92916666Y-120992676D01*
X92916666Y-120992676D02*
X92821428Y-120897438D01*
X92821428Y-120897438D02*
X92678571Y-120849819D01*
X92678571Y-120849819D02*
X92583333Y-120849819D01*
X92583333Y-120849819D02*
X92440476Y-120897438D01*
X92440476Y-120897438D02*
X92392857Y-120945057D01*
X91440476Y-121849819D02*
X92011904Y-121849819D01*
X91726190Y-121849819D02*
X91726190Y-120849819D01*
X91726190Y-120849819D02*
X91821428Y-120992676D01*
X91821428Y-120992676D02*
X91916666Y-121087914D01*
X91916666Y-121087914D02*
X92011904Y-121135533D01*
X90583333Y-121183152D02*
X90583333Y-121849819D01*
X90821428Y-120802200D02*
X91059523Y-121516485D01*
X91059523Y-121516485D02*
X90440476Y-121516485D01*
X92392857Y-97754580D02*
X92440476Y-97802200D01*
X92440476Y-97802200D02*
X92583333Y-97849819D01*
X92583333Y-97849819D02*
X92678571Y-97849819D01*
X92678571Y-97849819D02*
X92821428Y-97802200D01*
X92821428Y-97802200D02*
X92916666Y-97706961D01*
X92916666Y-97706961D02*
X92964285Y-97611723D01*
X92964285Y-97611723D02*
X93011904Y-97421247D01*
X93011904Y-97421247D02*
X93011904Y-97278390D01*
X93011904Y-97278390D02*
X92964285Y-97087914D01*
X92964285Y-97087914D02*
X92916666Y-96992676D01*
X92916666Y-96992676D02*
X92821428Y-96897438D01*
X92821428Y-96897438D02*
X92678571Y-96849819D01*
X92678571Y-96849819D02*
X92583333Y-96849819D01*
X92583333Y-96849819D02*
X92440476Y-96897438D01*
X92440476Y-96897438D02*
X92392857Y-96945057D01*
X91440476Y-97849819D02*
X92011904Y-97849819D01*
X91726190Y-97849819D02*
X91726190Y-96849819D01*
X91726190Y-96849819D02*
X91821428Y-96992676D01*
X91821428Y-96992676D02*
X91916666Y-97087914D01*
X91916666Y-97087914D02*
X92011904Y-97135533D01*
X90821428Y-96849819D02*
X90726190Y-96849819D01*
X90726190Y-96849819D02*
X90630952Y-96897438D01*
X90630952Y-96897438D02*
X90583333Y-96945057D01*
X90583333Y-96945057D02*
X90535714Y-97040295D01*
X90535714Y-97040295D02*
X90488095Y-97230771D01*
X90488095Y-97230771D02*
X90488095Y-97468866D01*
X90488095Y-97468866D02*
X90535714Y-97659342D01*
X90535714Y-97659342D02*
X90583333Y-97754580D01*
X90583333Y-97754580D02*
X90630952Y-97802200D01*
X90630952Y-97802200D02*
X90726190Y-97849819D01*
X90726190Y-97849819D02*
X90821428Y-97849819D01*
X90821428Y-97849819D02*
X90916666Y-97802200D01*
X90916666Y-97802200D02*
X90964285Y-97754580D01*
X90964285Y-97754580D02*
X91011904Y-97659342D01*
X91011904Y-97659342D02*
X91059523Y-97468866D01*
X91059523Y-97468866D02*
X91059523Y-97230771D01*
X91059523Y-97230771D02*
X91011904Y-97040295D01*
X91011904Y-97040295D02*
X90964285Y-96945057D01*
X90964285Y-96945057D02*
X90916666Y-96897438D01*
X90916666Y-96897438D02*
X90821428Y-96849819D01*
X91916666Y-49734580D02*
X91964285Y-49782200D01*
X91964285Y-49782200D02*
X92107142Y-49829819D01*
X92107142Y-49829819D02*
X92202380Y-49829819D01*
X92202380Y-49829819D02*
X92345237Y-49782200D01*
X92345237Y-49782200D02*
X92440475Y-49686961D01*
X92440475Y-49686961D02*
X92488094Y-49591723D01*
X92488094Y-49591723D02*
X92535713Y-49401247D01*
X92535713Y-49401247D02*
X92535713Y-49258390D01*
X92535713Y-49258390D02*
X92488094Y-49067914D01*
X92488094Y-49067914D02*
X92440475Y-48972676D01*
X92440475Y-48972676D02*
X92345237Y-48877438D01*
X92345237Y-48877438D02*
X92202380Y-48829819D01*
X92202380Y-48829819D02*
X92107142Y-48829819D01*
X92107142Y-48829819D02*
X91964285Y-48877438D01*
X91964285Y-48877438D02*
X91916666Y-48925057D01*
X91535713Y-48925057D02*
X91488094Y-48877438D01*
X91488094Y-48877438D02*
X91392856Y-48829819D01*
X91392856Y-48829819D02*
X91154761Y-48829819D01*
X91154761Y-48829819D02*
X91059523Y-48877438D01*
X91059523Y-48877438D02*
X91011904Y-48925057D01*
X91011904Y-48925057D02*
X90964285Y-49020295D01*
X90964285Y-49020295D02*
X90964285Y-49115533D01*
X90964285Y-49115533D02*
X91011904Y-49258390D01*
X91011904Y-49258390D02*
X91583332Y-49829819D01*
X91583332Y-49829819D02*
X90964285Y-49829819D01*
X92392857Y-37859580D02*
X92440476Y-37907200D01*
X92440476Y-37907200D02*
X92583333Y-37954819D01*
X92583333Y-37954819D02*
X92678571Y-37954819D01*
X92678571Y-37954819D02*
X92821428Y-37907200D01*
X92821428Y-37907200D02*
X92916666Y-37811961D01*
X92916666Y-37811961D02*
X92964285Y-37716723D01*
X92964285Y-37716723D02*
X93011904Y-37526247D01*
X93011904Y-37526247D02*
X93011904Y-37383390D01*
X93011904Y-37383390D02*
X92964285Y-37192914D01*
X92964285Y-37192914D02*
X92916666Y-37097676D01*
X92916666Y-37097676D02*
X92821428Y-37002438D01*
X92821428Y-37002438D02*
X92678571Y-36954819D01*
X92678571Y-36954819D02*
X92583333Y-36954819D01*
X92583333Y-36954819D02*
X92440476Y-37002438D01*
X92440476Y-37002438D02*
X92392857Y-37050057D01*
X92059523Y-36954819D02*
X91440476Y-36954819D01*
X91440476Y-36954819D02*
X91773809Y-37335771D01*
X91773809Y-37335771D02*
X91630952Y-37335771D01*
X91630952Y-37335771D02*
X91535714Y-37383390D01*
X91535714Y-37383390D02*
X91488095Y-37431009D01*
X91488095Y-37431009D02*
X91440476Y-37526247D01*
X91440476Y-37526247D02*
X91440476Y-37764342D01*
X91440476Y-37764342D02*
X91488095Y-37859580D01*
X91488095Y-37859580D02*
X91535714Y-37907200D01*
X91535714Y-37907200D02*
X91630952Y-37954819D01*
X91630952Y-37954819D02*
X91916666Y-37954819D01*
X91916666Y-37954819D02*
X92011904Y-37907200D01*
X92011904Y-37907200D02*
X92059523Y-37859580D01*
X91059523Y-37050057D02*
X91011904Y-37002438D01*
X91011904Y-37002438D02*
X90916666Y-36954819D01*
X90916666Y-36954819D02*
X90678571Y-36954819D01*
X90678571Y-36954819D02*
X90583333Y-37002438D01*
X90583333Y-37002438D02*
X90535714Y-37050057D01*
X90535714Y-37050057D02*
X90488095Y-37145295D01*
X90488095Y-37145295D02*
X90488095Y-37240533D01*
X90488095Y-37240533D02*
X90535714Y-37383390D01*
X90535714Y-37383390D02*
X91107142Y-37954819D01*
X91107142Y-37954819D02*
X90488095Y-37954819D01*
X91916666Y-61734580D02*
X91964285Y-61782200D01*
X91964285Y-61782200D02*
X92107142Y-61829819D01*
X92107142Y-61829819D02*
X92202380Y-61829819D01*
X92202380Y-61829819D02*
X92345237Y-61782200D01*
X92345237Y-61782200D02*
X92440475Y-61686961D01*
X92440475Y-61686961D02*
X92488094Y-61591723D01*
X92488094Y-61591723D02*
X92535713Y-61401247D01*
X92535713Y-61401247D02*
X92535713Y-61258390D01*
X92535713Y-61258390D02*
X92488094Y-61067914D01*
X92488094Y-61067914D02*
X92440475Y-60972676D01*
X92440475Y-60972676D02*
X92345237Y-60877438D01*
X92345237Y-60877438D02*
X92202380Y-60829819D01*
X92202380Y-60829819D02*
X92107142Y-60829819D01*
X92107142Y-60829819D02*
X91964285Y-60877438D01*
X91964285Y-60877438D02*
X91916666Y-60925057D01*
X91059523Y-61163152D02*
X91059523Y-61829819D01*
X91297618Y-60782200D02*
X91535713Y-61496485D01*
X91535713Y-61496485D02*
X90916666Y-61496485D01*
X70142857Y-128859580D02*
X70190476Y-128907200D01*
X70190476Y-128907200D02*
X70333333Y-128954819D01*
X70333333Y-128954819D02*
X70428571Y-128954819D01*
X70428571Y-128954819D02*
X70571428Y-128907200D01*
X70571428Y-128907200D02*
X70666666Y-128811961D01*
X70666666Y-128811961D02*
X70714285Y-128716723D01*
X70714285Y-128716723D02*
X70761904Y-128526247D01*
X70761904Y-128526247D02*
X70761904Y-128383390D01*
X70761904Y-128383390D02*
X70714285Y-128192914D01*
X70714285Y-128192914D02*
X70666666Y-128097676D01*
X70666666Y-128097676D02*
X70571428Y-128002438D01*
X70571428Y-128002438D02*
X70428571Y-127954819D01*
X70428571Y-127954819D02*
X70333333Y-127954819D01*
X70333333Y-127954819D02*
X70190476Y-128002438D01*
X70190476Y-128002438D02*
X70142857Y-128050057D01*
X69761904Y-128050057D02*
X69714285Y-128002438D01*
X69714285Y-128002438D02*
X69619047Y-127954819D01*
X69619047Y-127954819D02*
X69380952Y-127954819D01*
X69380952Y-127954819D02*
X69285714Y-128002438D01*
X69285714Y-128002438D02*
X69238095Y-128050057D01*
X69238095Y-128050057D02*
X69190476Y-128145295D01*
X69190476Y-128145295D02*
X69190476Y-128240533D01*
X69190476Y-128240533D02*
X69238095Y-128383390D01*
X69238095Y-128383390D02*
X69809523Y-128954819D01*
X69809523Y-128954819D02*
X69190476Y-128954819D01*
X68285714Y-127954819D02*
X68761904Y-127954819D01*
X68761904Y-127954819D02*
X68809523Y-128431009D01*
X68809523Y-128431009D02*
X68761904Y-128383390D01*
X68761904Y-128383390D02*
X68666666Y-128335771D01*
X68666666Y-128335771D02*
X68428571Y-128335771D01*
X68428571Y-128335771D02*
X68333333Y-128383390D01*
X68333333Y-128383390D02*
X68285714Y-128431009D01*
X68285714Y-128431009D02*
X68238095Y-128526247D01*
X68238095Y-128526247D02*
X68238095Y-128764342D01*
X68238095Y-128764342D02*
X68285714Y-128859580D01*
X68285714Y-128859580D02*
X68333333Y-128907200D01*
X68333333Y-128907200D02*
X68428571Y-128954819D01*
X68428571Y-128954819D02*
X68666666Y-128954819D01*
X68666666Y-128954819D02*
X68761904Y-128907200D01*
X68761904Y-128907200D02*
X68809523Y-128859580D01*
X91916666Y-85754580D02*
X91964285Y-85802200D01*
X91964285Y-85802200D02*
X92107142Y-85849819D01*
X92107142Y-85849819D02*
X92202380Y-85849819D01*
X92202380Y-85849819D02*
X92345237Y-85802200D01*
X92345237Y-85802200D02*
X92440475Y-85706961D01*
X92440475Y-85706961D02*
X92488094Y-85611723D01*
X92488094Y-85611723D02*
X92535713Y-85421247D01*
X92535713Y-85421247D02*
X92535713Y-85278390D01*
X92535713Y-85278390D02*
X92488094Y-85087914D01*
X92488094Y-85087914D02*
X92440475Y-84992676D01*
X92440475Y-84992676D02*
X92345237Y-84897438D01*
X92345237Y-84897438D02*
X92202380Y-84849819D01*
X92202380Y-84849819D02*
X92107142Y-84849819D01*
X92107142Y-84849819D02*
X91964285Y-84897438D01*
X91964285Y-84897438D02*
X91916666Y-84945057D01*
X91345237Y-85278390D02*
X91440475Y-85230771D01*
X91440475Y-85230771D02*
X91488094Y-85183152D01*
X91488094Y-85183152D02*
X91535713Y-85087914D01*
X91535713Y-85087914D02*
X91535713Y-85040295D01*
X91535713Y-85040295D02*
X91488094Y-84945057D01*
X91488094Y-84945057D02*
X91440475Y-84897438D01*
X91440475Y-84897438D02*
X91345237Y-84849819D01*
X91345237Y-84849819D02*
X91154761Y-84849819D01*
X91154761Y-84849819D02*
X91059523Y-84897438D01*
X91059523Y-84897438D02*
X91011904Y-84945057D01*
X91011904Y-84945057D02*
X90964285Y-85040295D01*
X90964285Y-85040295D02*
X90964285Y-85087914D01*
X90964285Y-85087914D02*
X91011904Y-85183152D01*
X91011904Y-85183152D02*
X91059523Y-85230771D01*
X91059523Y-85230771D02*
X91154761Y-85278390D01*
X91154761Y-85278390D02*
X91345237Y-85278390D01*
X91345237Y-85278390D02*
X91440475Y-85326009D01*
X91440475Y-85326009D02*
X91488094Y-85373628D01*
X91488094Y-85373628D02*
X91535713Y-85468866D01*
X91535713Y-85468866D02*
X91535713Y-85659342D01*
X91535713Y-85659342D02*
X91488094Y-85754580D01*
X91488094Y-85754580D02*
X91440475Y-85802200D01*
X91440475Y-85802200D02*
X91345237Y-85849819D01*
X91345237Y-85849819D02*
X91154761Y-85849819D01*
X91154761Y-85849819D02*
X91059523Y-85802200D01*
X91059523Y-85802200D02*
X91011904Y-85754580D01*
X91011904Y-85754580D02*
X90964285Y-85659342D01*
X90964285Y-85659342D02*
X90964285Y-85468866D01*
X90964285Y-85468866D02*
X91011904Y-85373628D01*
X91011904Y-85373628D02*
X91059523Y-85326009D01*
X91059523Y-85326009D02*
X91154761Y-85278390D01*
X92392857Y-109754580D02*
X92440476Y-109802200D01*
X92440476Y-109802200D02*
X92583333Y-109849819D01*
X92583333Y-109849819D02*
X92678571Y-109849819D01*
X92678571Y-109849819D02*
X92821428Y-109802200D01*
X92821428Y-109802200D02*
X92916666Y-109706961D01*
X92916666Y-109706961D02*
X92964285Y-109611723D01*
X92964285Y-109611723D02*
X93011904Y-109421247D01*
X93011904Y-109421247D02*
X93011904Y-109278390D01*
X93011904Y-109278390D02*
X92964285Y-109087914D01*
X92964285Y-109087914D02*
X92916666Y-108992676D01*
X92916666Y-108992676D02*
X92821428Y-108897438D01*
X92821428Y-108897438D02*
X92678571Y-108849819D01*
X92678571Y-108849819D02*
X92583333Y-108849819D01*
X92583333Y-108849819D02*
X92440476Y-108897438D01*
X92440476Y-108897438D02*
X92392857Y-108945057D01*
X91440476Y-109849819D02*
X92011904Y-109849819D01*
X91726190Y-109849819D02*
X91726190Y-108849819D01*
X91726190Y-108849819D02*
X91821428Y-108992676D01*
X91821428Y-108992676D02*
X91916666Y-109087914D01*
X91916666Y-109087914D02*
X92011904Y-109135533D01*
X91059523Y-108945057D02*
X91011904Y-108897438D01*
X91011904Y-108897438D02*
X90916666Y-108849819D01*
X90916666Y-108849819D02*
X90678571Y-108849819D01*
X90678571Y-108849819D02*
X90583333Y-108897438D01*
X90583333Y-108897438D02*
X90535714Y-108945057D01*
X90535714Y-108945057D02*
X90488095Y-109040295D01*
X90488095Y-109040295D02*
X90488095Y-109135533D01*
X90488095Y-109135533D02*
X90535714Y-109278390D01*
X90535714Y-109278390D02*
X91107142Y-109849819D01*
X91107142Y-109849819D02*
X90488095Y-109849819D01*
D11*
%TO.C,JP3*%
X85850000Y-31800000D02*
X85850000Y-33800000D01*
X85850000Y-33800000D02*
X88650000Y-33800000D01*
X88650000Y-31800000D02*
X85850000Y-31800000D01*
X88650000Y-33800000D02*
X88650000Y-31800000D01*
%TO.C,C6*%
X102120000Y-77720000D02*
G75*
G02*
X91880000Y-77720000I-5120000J0D01*
G01*
X91880000Y-77720000D02*
G75*
G02*
X102120000Y-77720000I5120000J0D01*
G01*
%TO.C,C14*%
X102120000Y-125720000D02*
G75*
G02*
X91880000Y-125720000I-5120000J0D01*
G01*
X91880000Y-125720000D02*
G75*
G02*
X102120000Y-125720000I5120000J0D01*
G01*
%TO.C,C10*%
X102120000Y-101720000D02*
G75*
G02*
X91880000Y-101720000I-5120000J0D01*
G01*
X91880000Y-101720000D02*
G75*
G02*
X102120000Y-101720000I5120000J0D01*
G01*
%TO.C,C2*%
X102120000Y-53700000D02*
G75*
G02*
X91880000Y-53700000I-5120000J0D01*
G01*
X91880000Y-53700000D02*
G75*
G02*
X102120000Y-53700000I5120000J0D01*
G01*
%TO.C,C32*%
X102120000Y-41825000D02*
G75*
G02*
X91880000Y-41825000I-5120000J0D01*
G01*
X91880000Y-41825000D02*
G75*
G02*
X102120000Y-41825000I5120000J0D01*
G01*
%TO.C,C4*%
X102120000Y-65700000D02*
G75*
G02*
X91880000Y-65700000I-5120000J0D01*
G01*
X91880000Y-65700000D02*
G75*
G02*
X102120000Y-65700000I5120000J0D01*
G01*
%TO.C,JP2*%
X57800000Y-119800000D02*
X57800000Y-122600000D01*
X57800000Y-122600000D02*
X59800000Y-122600000D01*
X59800000Y-119800000D02*
X57800000Y-119800000D01*
X59800000Y-122600000D02*
X59800000Y-119800000D01*
%TO.C,C25*%
X75870000Y-121000000D02*
G75*
G02*
X63130000Y-121000000I-6370000J0D01*
G01*
X63130000Y-121000000D02*
G75*
G02*
X75870000Y-121000000I6370000J0D01*
G01*
%TO.C,C8*%
X102120000Y-89720000D02*
G75*
G02*
X91880000Y-89720000I-5120000J0D01*
G01*
X91880000Y-89720000D02*
G75*
G02*
X102120000Y-89720000I5120000J0D01*
G01*
%TO.C,C12*%
X102120000Y-113720000D02*
G75*
G02*
X91880000Y-113720000I-5120000J0D01*
G01*
X91880000Y-113720000D02*
G75*
G02*
X102120000Y-113720000I5120000J0D01*
G01*
%TO.C,JP1*%
X76750000Y-40000000D02*
X76750000Y-42000000D01*
X76750000Y-42000000D02*
X79550000Y-42000000D01*
X79550000Y-40000000D02*
X76750000Y-40000000D01*
X79550000Y-42000000D02*
X79550000Y-40000000D01*
%TD*%
%LPC*%
%TO.C,JP3*%
G36*
X87100000Y-33550000D02*
G01*
X87400000Y-33550000D01*
X87400000Y-32050000D01*
X87100000Y-32050000D01*
X87100000Y-33550000D01*
G37*
%TO.C,JP2*%
G36*
X59550000Y-121350000D02*
G01*
X58050000Y-121350000D01*
X58050000Y-121050000D01*
X59550000Y-121050000D01*
X59550000Y-121350000D01*
G37*
%TO.C,JP1*%
G36*
X78000000Y-41750000D02*
G01*
X78300000Y-41750000D01*
X78300000Y-40250000D01*
X78000000Y-40250000D01*
X78000000Y-41750000D01*
G37*
%TD*%
D12*
%TO.C,F1*%
X60000000Y-114300000D03*
X58800000Y-124500000D03*
%TD*%
%TO.C,A1*%
X57350000Y-38470000D03*
D13*
X57650000Y-41500000D03*
X62500000Y-41500000D03*
D12*
X62800000Y-38470000D03*
D14*
X51185000Y-38340000D03*
D15*
X51185000Y-40880000D03*
D16*
X51185000Y-43420000D03*
D15*
X51185000Y-45960000D03*
X51185000Y-48500000D03*
X51185000Y-51040000D03*
X51185000Y-53580000D03*
D16*
X51185000Y-56120000D03*
D15*
X51185000Y-58660000D03*
X51185000Y-61200000D03*
X51185000Y-63740000D03*
X51185000Y-66280000D03*
D16*
X51185000Y-68820000D03*
D15*
X51185000Y-71360000D03*
X51185000Y-73900000D03*
X51185000Y-76440000D03*
X51185000Y-78980000D03*
D16*
X51185000Y-81520000D03*
D15*
X51185000Y-84060000D03*
X51185000Y-86600000D03*
X68965000Y-86600000D03*
X68965000Y-84060000D03*
D17*
X68965000Y-81520000D03*
D15*
X68965000Y-78980000D03*
X68965000Y-76440000D03*
X68965000Y-73900000D03*
X68965000Y-71360000D03*
D17*
X68965000Y-68820000D03*
D15*
X68965000Y-66280000D03*
X68965000Y-63740000D03*
X68965000Y-61200000D03*
X68965000Y-58660000D03*
D17*
X68965000Y-56120000D03*
D15*
X68965000Y-53580000D03*
X68965000Y-51040000D03*
X68965000Y-48500000D03*
X68965000Y-45960000D03*
D17*
X68965000Y-43420000D03*
D15*
X68965000Y-40880000D03*
X68965000Y-38340000D03*
%TD*%
D18*
%TO.C,SW1*%
X37000000Y-75000000D03*
X37000000Y-68500000D03*
X41500000Y-75000000D03*
X41500000Y-68500000D03*
%TD*%
D19*
%TO.C,J3*%
X104000000Y-63120000D03*
D20*
X104000000Y-65660000D03*
X104000000Y-68200000D03*
%TD*%
D19*
%TO.C,J13*%
X104000000Y-39245000D03*
D20*
X104000000Y-41785000D03*
X104000000Y-44325000D03*
%TD*%
D19*
%TO.C,J7*%
X104000000Y-111140000D03*
D20*
X104000000Y-113680000D03*
X104000000Y-116220000D03*
%TD*%
D21*
%TO.C,TP1*%
X79500000Y-129500000D03*
%TD*%
D22*
%TO.C,H1*%
X102800000Y-135400000D03*
D23*
X102800000Y-135400000D03*
%TD*%
D18*
%TO.C,TP3*%
X85250000Y-129500000D03*
%TD*%
D19*
%TO.C,J12*%
X41500000Y-45500000D03*
D20*
X41500000Y-42960000D03*
X41500000Y-40420000D03*
X41500000Y-37880000D03*
%TD*%
D24*
%TO.C,J1*%
X46000000Y-130150000D03*
X46000000Y-116650000D03*
D25*
X52000000Y-127000000D03*
D26*
X52000000Y-119800000D03*
%TD*%
D19*
%TO.C,J10*%
X41000000Y-90880000D03*
D20*
X41000000Y-93420000D03*
X41000000Y-95960000D03*
X41000000Y-98500000D03*
%TD*%
D22*
%TO.C,H4*%
X102800000Y-32400000D03*
D23*
X102800000Y-32400000D03*
%TD*%
D22*
%TO.C,H3*%
X38800000Y-32400000D03*
D23*
X38800000Y-32400000D03*
%TD*%
D19*
%TO.C,J8*%
X104000000Y-123140000D03*
D20*
X104000000Y-125680000D03*
X104000000Y-128220000D03*
%TD*%
D19*
%TO.C,J5*%
X104000000Y-87140000D03*
D20*
X104000000Y-89680000D03*
X104000000Y-92220000D03*
%TD*%
D18*
%TO.C,SW2*%
X37000000Y-63500000D03*
X37000000Y-57000000D03*
X41500000Y-63500000D03*
X41500000Y-57000000D03*
%TD*%
D27*
%TO.C,J9*%
X86600000Y-35400000D03*
D28*
X84600000Y-35400000D03*
%TD*%
D19*
%TO.C,J4*%
X104000000Y-75140000D03*
D20*
X104000000Y-77680000D03*
X104000000Y-80220000D03*
%TD*%
D19*
%TO.C,J2*%
X104000000Y-51120000D03*
D20*
X104000000Y-53660000D03*
X104000000Y-56200000D03*
%TD*%
D18*
%TO.C,TP2*%
X73000000Y-101750000D03*
%TD*%
D22*
%TO.C,H2*%
X38800000Y-135400000D03*
D23*
X38800000Y-135400000D03*
%TD*%
D19*
%TO.C,J6*%
X104000000Y-99140000D03*
D20*
X104000000Y-101680000D03*
X104000000Y-104220000D03*
%TD*%
D29*
%TO.C,JP3*%
X86600000Y-32800000D03*
X87900000Y-32800000D03*
%TD*%
D15*
%TO.C,C6*%
X97000000Y-80220000D03*
X97000000Y-75220000D03*
%TD*%
%TO.C,C14*%
X97000000Y-128220000D03*
X97000000Y-123220000D03*
%TD*%
%TO.C,C10*%
X97000000Y-104220000D03*
X97000000Y-99220000D03*
%TD*%
%TO.C,C2*%
X97000000Y-56200000D03*
X97000000Y-51200000D03*
%TD*%
%TO.C,C32*%
X97000000Y-44325000D03*
X97000000Y-39325000D03*
%TD*%
%TO.C,C4*%
X97000000Y-68200000D03*
X97000000Y-63200000D03*
%TD*%
D30*
%TO.C,JP2*%
X58800000Y-121850000D03*
X58800000Y-120550000D03*
%TD*%
D15*
%TO.C,C25*%
X67000000Y-121000000D03*
X72000000Y-121000000D03*
%TD*%
%TO.C,C8*%
X97000000Y-92220000D03*
X97000000Y-87220000D03*
%TD*%
%TO.C,C12*%
X97000000Y-116220000D03*
X97000000Y-111220000D03*
%TD*%
D29*
%TO.C,JP1*%
X77500000Y-41000000D03*
X78800000Y-41000000D03*
%TD*%
%LPD*%
M02*
