%TF.GenerationSoftware,KiCad,Pcbnew,9.0.6*%
%TF.CreationDate,2025-11-30T21:04:56+01:00*%
%TF.ProjectId,controller,636f6e74-726f-46c6-9c65-722e6b696361,rev?*%
%TF.SameCoordinates,Original*%
%TF.FileFunction,Soldermask,Bot*%
%TF.FilePolarity,Negative*%
%FSLAX46Y46*%
G04 Gerber Fmt 4.6, Leading zero omitted, Abs format (unit mm)*
G04 Created by KiCad (PCBNEW 9.0.6) date 2025-11-30 21:04:56*
%MOMM*%
%LPD*%
G01*
G04 APERTURE LIST*
G04 Aperture macros list*
%AMRoundRect*
0 Rectangle with rounded corners*
0 $1 Rounding radius*
0 $2 $3 $4 $5 $6 $7 $8 $9 X,Y pos of 4 corners*
0 Add a 4 corners polygon primitive as box body*
4,1,4,$2,$3,$4,$5,$6,$7,$8,$9,$2,$3,0*
0 Add four circle primitives for the rounded corners*
1,1,$1+$1,$2,$3*
1,1,$1+$1,$4,$5*
1,1,$1+$1,$6,$7*
1,1,$1+$1,$8,$9*
0 Add four rect primitives between the rounded corners*
20,1,$1+$1,$2,$3,$4,$5,0*
20,1,$1+$1,$4,$5,$6,$7,0*
20,1,$1+$1,$6,$7,$8,$9,0*
20,1,$1+$1,$8,$9,$2,$3,0*%
%AMFreePoly0*
4,1,37,0.603843,0.796157,0.639018,0.796157,0.711114,0.766294,0.766294,0.711114,0.796157,0.639018,0.796157,0.603843,0.800000,0.600000,0.800000,-0.600000,0.796157,-0.603843,0.796157,-0.639018,0.766294,-0.711114,0.711114,-0.766294,0.639018,-0.796157,0.603843,-0.796157,0.600000,-0.800000,0.000000,-0.800000,0.000000,-0.796148,-0.078414,-0.796148,-0.232228,-0.765552,-0.377117,-0.705537,
-0.507515,-0.618408,-0.618408,-0.507515,-0.705537,-0.377117,-0.765552,-0.232228,-0.796148,-0.078414,-0.796148,0.078414,-0.765552,0.232228,-0.705537,0.377117,-0.618408,0.507515,-0.507515,0.618408,-0.377117,0.705537,-0.232228,0.765552,-0.078414,0.796148,0.000000,0.796148,0.000000,0.800000,0.600000,0.800000,0.603843,0.796157,0.603843,0.796157,$1*%
%AMFreePoly1*
4,1,37,0.000000,0.796148,0.078414,0.796148,0.232228,0.765552,0.377117,0.705537,0.507515,0.618408,0.618408,0.507515,0.705537,0.377117,0.765552,0.232228,0.796148,0.078414,0.796148,-0.078414,0.765552,-0.232228,0.705537,-0.377117,0.618408,-0.507515,0.507515,-0.618408,0.377117,-0.705537,0.232228,-0.765552,0.078414,-0.796148,0.000000,-0.796148,0.000000,-0.800000,-0.600000,-0.800000,
-0.603843,-0.796157,-0.639018,-0.796157,-0.711114,-0.766294,-0.766294,-0.711114,-0.796157,-0.639018,-0.796157,-0.603843,-0.800000,-0.600000,-0.800000,0.600000,-0.796157,0.603843,-0.796157,0.639018,-0.766294,0.711114,-0.711114,0.766294,-0.639018,0.796157,-0.603843,0.796157,-0.600000,0.800000,0.000000,0.800000,0.000000,0.796148,0.000000,0.796148,$1*%
G04 Aperture macros list end*
%ADD10C,2.200000*%
%ADD11C,1.850000*%
%ADD12RoundRect,0.200000X-0.600000X-0.600000X0.600000X-0.600000X0.600000X0.600000X-0.600000X0.600000X0*%
%ADD13C,1.600000*%
%ADD14FreePoly0,0.000000*%
%ADD15FreePoly1,0.000000*%
%ADD16C,2.000000*%
%ADD17R,1.700000X1.700000*%
%ADD18C,1.700000*%
%ADD19R,2.000000X2.000000*%
%ADD20C,3.600000*%
%ADD21C,5.700000*%
%ADD22R,2.000000X0.900000*%
%ADD23RoundRect,1.025000X1.025000X-1.025000X1.025000X1.025000X-1.025000X1.025000X-1.025000X-1.025000X0*%
%ADD24C,4.100000*%
%ADD25RoundRect,0.250000X0.350000X0.625000X-0.350000X0.625000X-0.350000X-0.625000X0.350000X-0.625000X0*%
%ADD26O,1.200000X1.750000*%
%ADD27R,1.000000X1.500000*%
%ADD28R,1.500000X1.000000*%
G04 APERTURE END LIST*
%TO.C,JP3*%
G36*
X87100000Y-33550000D02*
G01*
X87400000Y-33550000D01*
X87400000Y-32050000D01*
X87100000Y-32050000D01*
X87100000Y-33550000D01*
G37*
%TO.C,JP2*%
G36*
X59550000Y-121350000D02*
G01*
X58050000Y-121350000D01*
X58050000Y-121050000D01*
X59550000Y-121050000D01*
X59550000Y-121350000D01*
G37*
%TO.C,JP1*%
G36*
X78000000Y-41750000D02*
G01*
X78300000Y-41750000D01*
X78300000Y-40250000D01*
X78000000Y-40250000D01*
X78000000Y-41750000D01*
G37*
%TD*%
D10*
%TO.C,F1*%
X60000000Y-114300000D03*
X58800000Y-124500000D03*
%TD*%
%TO.C,A1*%
X57350000Y-38470000D03*
D11*
X57650000Y-41500000D03*
X62500000Y-41500000D03*
D10*
X62800000Y-38470000D03*
D12*
X51185000Y-38340000D03*
D13*
X51185000Y-40880000D03*
D14*
X51185000Y-43420000D03*
D13*
X51185000Y-45960000D03*
X51185000Y-48500000D03*
X51185000Y-51040000D03*
X51185000Y-53580000D03*
D14*
X51185000Y-56120000D03*
D13*
X51185000Y-58660000D03*
X51185000Y-61200000D03*
X51185000Y-63740000D03*
X51185000Y-66280000D03*
D14*
X51185000Y-68820000D03*
D13*
X51185000Y-71360000D03*
X51185000Y-73900000D03*
X51185000Y-76440000D03*
X51185000Y-78980000D03*
D14*
X51185000Y-81520000D03*
D13*
X51185000Y-84060000D03*
X51185000Y-86600000D03*
X68965000Y-86600000D03*
X68965000Y-84060000D03*
D15*
X68965000Y-81520000D03*
D13*
X68965000Y-78980000D03*
X68965000Y-76440000D03*
X68965000Y-73900000D03*
X68965000Y-71360000D03*
D15*
X68965000Y-68820000D03*
D13*
X68965000Y-66280000D03*
X68965000Y-63740000D03*
X68965000Y-61200000D03*
X68965000Y-58660000D03*
D15*
X68965000Y-56120000D03*
D13*
X68965000Y-53580000D03*
X68965000Y-51040000D03*
X68965000Y-48500000D03*
X68965000Y-45960000D03*
D15*
X68965000Y-43420000D03*
D13*
X68965000Y-40880000D03*
X68965000Y-38340000D03*
%TD*%
D16*
%TO.C,SW1*%
X37000000Y-75000000D03*
X37000000Y-68500000D03*
X41500000Y-75000000D03*
X41500000Y-68500000D03*
%TD*%
D17*
%TO.C,J3*%
X104000000Y-63120000D03*
D18*
X104000000Y-65660000D03*
X104000000Y-68200000D03*
%TD*%
D17*
%TO.C,J13*%
X104000000Y-39245000D03*
D18*
X104000000Y-41785000D03*
X104000000Y-44325000D03*
%TD*%
D17*
%TO.C,J7*%
X104000000Y-111140000D03*
D18*
X104000000Y-113680000D03*
X104000000Y-116220000D03*
%TD*%
D19*
%TO.C,TP1*%
X79500000Y-129500000D03*
%TD*%
D20*
%TO.C,H1*%
X102800000Y-135400000D03*
D21*
X102800000Y-135400000D03*
%TD*%
D16*
%TO.C,TP3*%
X85250000Y-129500000D03*
%TD*%
D17*
%TO.C,J12*%
X41500000Y-45500000D03*
D18*
X41500000Y-42960000D03*
X41500000Y-40420000D03*
X41500000Y-37880000D03*
%TD*%
D22*
%TO.C,J1*%
X46000000Y-130150000D03*
X46000000Y-116650000D03*
D23*
X52000000Y-127000000D03*
D24*
X52000000Y-119800000D03*
%TD*%
D17*
%TO.C,J10*%
X41000000Y-90880000D03*
D18*
X41000000Y-93420000D03*
X41000000Y-95960000D03*
X41000000Y-98500000D03*
%TD*%
D20*
%TO.C,H4*%
X102800000Y-32400000D03*
D21*
X102800000Y-32400000D03*
%TD*%
D20*
%TO.C,H3*%
X38800000Y-32400000D03*
D21*
X38800000Y-32400000D03*
%TD*%
D17*
%TO.C,J8*%
X104000000Y-123140000D03*
D18*
X104000000Y-125680000D03*
X104000000Y-128220000D03*
%TD*%
D17*
%TO.C,J5*%
X104000000Y-87140000D03*
D18*
X104000000Y-89680000D03*
X104000000Y-92220000D03*
%TD*%
D16*
%TO.C,SW2*%
X37000000Y-63500000D03*
X37000000Y-57000000D03*
X41500000Y-63500000D03*
X41500000Y-57000000D03*
%TD*%
D25*
%TO.C,J9*%
X86600000Y-35400000D03*
D26*
X84600000Y-35400000D03*
%TD*%
D17*
%TO.C,J4*%
X104000000Y-75140000D03*
D18*
X104000000Y-77680000D03*
X104000000Y-80220000D03*
%TD*%
D17*
%TO.C,J2*%
X104000000Y-51120000D03*
D18*
X104000000Y-53660000D03*
X104000000Y-56200000D03*
%TD*%
D16*
%TO.C,TP2*%
X73000000Y-101750000D03*
%TD*%
D20*
%TO.C,H2*%
X38800000Y-135400000D03*
D21*
X38800000Y-135400000D03*
%TD*%
D17*
%TO.C,J6*%
X104000000Y-99140000D03*
D18*
X104000000Y-101680000D03*
X104000000Y-104220000D03*
%TD*%
D27*
%TO.C,JP3*%
X86600000Y-32800000D03*
X87900000Y-32800000D03*
%TD*%
D13*
%TO.C,C6*%
X97000000Y-80220000D03*
X97000000Y-75220000D03*
%TD*%
%TO.C,C14*%
X97000000Y-128220000D03*
X97000000Y-123220000D03*
%TD*%
%TO.C,C10*%
X97000000Y-104220000D03*
X97000000Y-99220000D03*
%TD*%
%TO.C,C2*%
X97000000Y-56200000D03*
X97000000Y-51200000D03*
%TD*%
%TO.C,C32*%
X97000000Y-44325000D03*
X97000000Y-39325000D03*
%TD*%
%TO.C,C4*%
X97000000Y-68200000D03*
X97000000Y-63200000D03*
%TD*%
D28*
%TO.C,JP2*%
X58800000Y-121850000D03*
X58800000Y-120550000D03*
%TD*%
D13*
%TO.C,C25*%
X67000000Y-121000000D03*
X72000000Y-121000000D03*
%TD*%
%TO.C,C8*%
X97000000Y-92220000D03*
X97000000Y-87220000D03*
%TD*%
%TO.C,C12*%
X97000000Y-116220000D03*
X97000000Y-111220000D03*
%TD*%
D27*
%TO.C,JP1*%
X77500000Y-41000000D03*
X78800000Y-41000000D03*
%TD*%
M02*
